M48
;Layer_Color=9474304
;FILE_FORMAT=4:4
METRIC,LZ
;TYPE=PLATED
T1F00S00C0.3000
T2F00S00C0.5500
T3F00S00C0.9000
T4F00S00C1.5000
T5F00S00C1.6000
%
T01
X00366Y00006
X00412Y00018
X00459Y00004
X00533Y00006
X00315Y00019
X00272Y00045
X00228Y00053
X0019Y00018
X00162Y00006
X00087
X00007
X00258
X0027173Y0009827
X0025877Y0013177
X00267Y00164
X00266Y00206
X00234Y00229
X00221Y00264
X001975Y00263
X00155Y00282
X00159Y00294
X0012Y00285
X00106
Y00264
X00119Y00263
X00131Y00264
X0006795Y0031195
X0010773Y0035773
X0018173
X00236Y00331
X00259Y00315
X0024661Y0028439
X00272Y00265
X00317Y00273
X00316Y00335
X0026527Y0035873
X00315Y00187
X00316Y00072
X0022Y00081
X00217Y00105
X0020797Y00159
X00185Y00204
X00118Y00101
Y00082
X00131
X00105Y00079
X00092Y001005
X00067Y00138
X0004211Y0014039
X00042Y00168
X0000627Y0020327
Y0027727
X00008Y00357
X00009Y00099
X00145Y00061
X00346Y00094
Y00113
Y0013
X00384
Y00114
Y00094
X00411Y00071
X00424Y00118
X00397Y00183
X0038Y00227
X0037Y00263
X00361Y00269
X00385Y00289
X00404Y00291
X00426Y00259
X00445
X00461Y00254
X00464Y0029
X00436Y00233
X00502Y00237
X0053Y0026
X00601Y00231
X006Y00197
Y00149
X00568
X00555Y00092
X0052Y00086
X0059Y00075
X00601Y00091
Y003
X00598256Y00355838
X00514Y00358
X00364Y00336
X003245Y00326
X00334Y00356
T02
X0009317Y0004062
X0011857
X0014397
X0016937
X0019477
X0022017
Y0014212
X0019477
X0016937
X0014397
X0011857
X0009317
X000919Y0021969
X001173
X001427
X001681
X001935
X002189
Y0032119
X001935
X001681
X001427
X001173
X000919
T03
X00565Y00013
X005904
X00548Y002698
Y002952
Y003206
Y00346
X00482Y00337
X004566
X004312
T04
X0036556Y0004625
T05
X0034016Y0002085
X0039096
Y0007165
X0034016
M30
