%FSLAX44Y44*%
%MOMM*%
G71*
G01*
G75*
G04 Layer_Physical_Order=2*
G04 Layer_Color=16711680*
%ADD10R,1.2500X1.4000*%
%ADD11R,1.6000X2.1000*%
%ADD12R,1.3500X1.0000*%
%ADD13R,1.2000X1.2000*%
%ADD14R,1.2000X1.2000*%
%ADD15R,1.5000X2.0000*%
%ADD16C,0.2500*%
%ADD17C,0.5000*%
%ADD18C,0.3000*%
%ADD19C,1.0000*%
%ADD20C,1.5000*%
%ADD21C,0.2540*%
%ADD22R,1.5000X1.5000*%
%ADD23C,1.5000*%
%ADD24R,1.5000X1.5000*%
%ADD25C,2.2000*%
%ADD26C,0.6000*%
%ADD27C,0.7000*%
%ADD28R,1.8000X1.7000*%
%ADD29R,1.7000X1.8000*%
%ADD30R,1.4000X1.2500*%
%ADD31R,1.0000X1.3500*%
%ADD32R,1.1000X1.3000*%
%ADD33R,0.9000X2.1500*%
%ADD34R,3.2500X2.1500*%
%ADD35O,0.2500X1.2500*%
%ADD36O,1.2500X0.2500*%
%ADD37O,0.6000X1.4500*%
G36*
X607000Y365031D02*
Y0D01*
X607000Y0D01*
X607000Y-0D01*
X606798Y-487D01*
X-1177D01*
Y364597D01*
X50Y365824D01*
X606102Y365929D01*
X607000Y365031D01*
D02*
G37*
%LPC*%
G36*
X105610Y129358D02*
X103464Y128931D01*
X101645Y127715D01*
X100429Y125896D01*
X100002Y123750D01*
Y115250D01*
X100429Y113104D01*
X101645Y111285D01*
X101787Y111190D01*
Y108694D01*
X97416Y104323D01*
X96060D01*
X95965Y104465D01*
X94146Y105681D01*
X92000Y106108D01*
X89854Y105681D01*
X88035Y104465D01*
X86819Y102646D01*
X86392Y100500D01*
X86819Y98354D01*
X88035Y96535D01*
X89854Y95319D01*
X92000Y94892D01*
X94146Y95319D01*
X95965Y96535D01*
X96060Y96677D01*
X99000D01*
X100463Y96968D01*
X101704Y97796D01*
X108314Y104406D01*
X109142Y105647D01*
X109433Y107110D01*
Y111190D01*
X109575Y111285D01*
X110791Y113104D01*
X111218Y115250D01*
Y123750D01*
X110791Y125896D01*
X109575Y127715D01*
X107756Y128931D01*
X105610Y129358D01*
D02*
G37*
G36*
X118310D02*
X116164Y128931D01*
X114345Y127715D01*
X113129Y125896D01*
X112702Y123750D01*
Y115250D01*
X113129Y113104D01*
X113922Y111918D01*
Y104796D01*
X112819Y103146D01*
X112392Y101000D01*
X112819Y98854D01*
X114035Y97035D01*
X115854Y95819D01*
X118000Y95392D01*
X120146Y95819D01*
X121965Y97035D01*
X123181Y98854D01*
X123608Y101000D01*
X123181Y103146D01*
X122078Y104796D01*
Y111153D01*
X122275Y111285D01*
X123491Y113104D01*
X123918Y115250D01*
Y123750D01*
X123491Y125896D01*
X122275Y127715D01*
X120456Y128931D01*
X118310Y129358D01*
D02*
G37*
G36*
X562310Y132750D02*
X524810D01*
Y106250D01*
X562310D01*
Y132750D01*
D02*
G37*
G36*
X365560Y59866D02*
X362036Y59402D01*
X358752Y58042D01*
X355932Y55878D01*
X353768Y53058D01*
X352407Y49774D01*
X351944Y46250D01*
X352407Y42726D01*
X353768Y39442D01*
X355932Y36622D01*
X358752Y34458D01*
X362036Y33098D01*
X365560Y32634D01*
X369084Y33098D01*
X372368Y34458D01*
X375188Y36622D01*
X377352Y39442D01*
X378713Y42726D01*
X379176Y46250D01*
X378713Y49774D01*
X377352Y53058D01*
X375188Y55878D01*
X372368Y58042D01*
X369084Y59402D01*
X365560Y59866D01*
D02*
G37*
G36*
X271470Y74608D02*
X269324Y74181D01*
X267505Y72965D01*
X266289Y71146D01*
X265862Y69000D01*
Y60500D01*
X266289Y58354D01*
X267392Y56704D01*
Y48003D01*
X266819Y47146D01*
X266392Y45000D01*
X266819Y42854D01*
X268035Y41035D01*
X269854Y39819D01*
X272000Y39392D01*
X274146Y39819D01*
X275965Y41035D01*
X277181Y42854D01*
X277608Y45000D01*
X277181Y47146D01*
X275965Y48965D01*
X275548Y49244D01*
Y56704D01*
X276651Y58354D01*
X277078Y60500D01*
Y69000D01*
X276651Y71146D01*
X275435Y72965D01*
X273616Y74181D01*
X271470Y74608D01*
D02*
G37*
G36*
X389690Y85140D02*
X387425Y84841D01*
X384132Y83477D01*
X381303Y81307D01*
X379133Y78478D01*
X377769Y75185D01*
X377470Y72920D01*
X389690D01*
Y85140D01*
D02*
G37*
G36*
X341430D02*
Y72920D01*
X353650D01*
X353352Y75185D01*
X351987Y78478D01*
X349817Y81307D01*
X346988Y83477D01*
X343695Y84841D01*
X341430Y85140D01*
D02*
G37*
G36*
X392230D02*
Y72920D01*
X404450D01*
X404151Y75185D01*
X402787Y78478D01*
X400617Y81307D01*
X397788Y83477D01*
X394495Y84841D01*
X392230Y85140D01*
D02*
G37*
G36*
X495540Y85790D02*
X487270D01*
Y78270D01*
X495540D01*
Y85790D01*
D02*
G37*
G36*
X484730D02*
X476460D01*
Y78270D01*
X484730D01*
Y85790D01*
D02*
G37*
G36*
X98559Y118230D02*
X94180D01*
Y109854D01*
X95072Y110031D01*
X96904Y111256D01*
X98129Y113088D01*
X98559Y115250D01*
Y118230D01*
D02*
G37*
G36*
X91640D02*
X87261D01*
Y115250D01*
X87691Y113088D01*
X88916Y111256D01*
X90748Y110031D01*
X91640Y109854D01*
Y118230D01*
D02*
G37*
G36*
X118570Y50706D02*
X115960Y50363D01*
X113527Y49355D01*
X111438Y47752D01*
X109835Y45663D01*
X108827Y43231D01*
X108484Y40620D01*
X108827Y38010D01*
X109835Y35577D01*
X111438Y33488D01*
X113527Y31885D01*
X115960Y30877D01*
X118570Y30534D01*
X121180Y30877D01*
X123613Y31885D01*
X125702Y33488D01*
X127305Y35577D01*
X128313Y38010D01*
X128656Y40620D01*
X128313Y43231D01*
X127305Y45663D01*
X125702Y47752D01*
X123613Y49355D01*
X121180Y50363D01*
X118570Y50706D01*
D02*
G37*
G36*
X91640Y129146D02*
X90748Y128969D01*
X88916Y127744D01*
X87691Y125912D01*
X87261Y123750D01*
Y120770D01*
X91640D01*
Y129146D01*
D02*
G37*
G36*
X392230Y34340D02*
Y22120D01*
X404450D01*
X404151Y24385D01*
X402787Y27678D01*
X400617Y30507D01*
X397788Y32677D01*
X394495Y34042D01*
X392230Y34340D01*
D02*
G37*
G36*
X42110Y145998D02*
X39964Y145571D01*
X38145Y144355D01*
X36929Y142536D01*
X36502Y140390D01*
X36929Y138244D01*
X38145Y136425D01*
X38287Y136330D01*
Y127810D01*
X38145Y127715D01*
X36929Y125896D01*
X36502Y123750D01*
Y115250D01*
X36929Y113104D01*
X38145Y111285D01*
X39964Y110069D01*
X42110Y109642D01*
X44256Y110069D01*
X46075Y111285D01*
X47291Y113104D01*
X47718Y115250D01*
Y123750D01*
X47291Y125896D01*
X46075Y127715D01*
X45933Y127810D01*
Y136330D01*
X46075Y136425D01*
X47291Y138244D01*
X47718Y140390D01*
X47291Y142536D01*
X46075Y144355D01*
X44256Y145571D01*
X42110Y145998D01*
D02*
G37*
G36*
X103170Y50620D02*
X83170D01*
Y30620D01*
X103170D01*
Y50620D01*
D02*
G37*
G36*
X67000Y143608D02*
X64854Y143181D01*
X63035Y141965D01*
X61819Y140146D01*
X61392Y138000D01*
X61819Y135854D01*
X63035Y134035D01*
X63432Y133770D01*
Y127546D01*
X62329Y125896D01*
X61902Y123750D01*
Y115250D01*
X62329Y113104D01*
X63545Y111285D01*
X65364Y110069D01*
X67510Y109642D01*
X69656Y110069D01*
X71475Y111285D01*
X72691Y113104D01*
X73118Y115250D01*
Y123750D01*
X72691Y125896D01*
X71588Y127546D01*
Y134967D01*
X72181Y135854D01*
X72608Y138000D01*
X72181Y140146D01*
X70965Y141965D01*
X69146Y143181D01*
X67000Y143608D01*
D02*
G37*
G36*
X471540Y119480D02*
X461270D01*
Y109710D01*
X471540D01*
Y119480D01*
D02*
G37*
G36*
X458730D02*
X448460D01*
Y109710D01*
X458730D01*
Y119480D01*
D02*
G37*
G36*
X338890Y85140D02*
X336625Y84841D01*
X333332Y83477D01*
X330503Y81307D01*
X328333Y78478D01*
X326968Y75185D01*
X326670Y72920D01*
X338890D01*
Y85140D01*
D02*
G37*
G36*
X92910Y74858D02*
X90764Y74431D01*
X88945Y73215D01*
X87729Y71396D01*
X87302Y69250D01*
Y60750D01*
X87729Y58604D01*
X88945Y56785D01*
X90764Y55569D01*
X92910Y55142D01*
X95056Y55569D01*
X96875Y56785D01*
X98091Y58604D01*
X98518Y60750D01*
Y69250D01*
X98091Y71396D01*
X96875Y73215D01*
X95056Y74431D01*
X92910Y74858D01*
D02*
G37*
G36*
X80210D02*
X78064Y74431D01*
X76245Y73215D01*
X75029Y71396D01*
X74602Y69250D01*
Y60750D01*
X75029Y58604D01*
X76245Y56785D01*
X78064Y55569D01*
X80210Y55142D01*
X82356Y55569D01*
X84175Y56785D01*
X85391Y58604D01*
X85818Y60750D01*
Y69250D01*
X85391Y71396D01*
X84175Y73215D01*
X82356Y74431D01*
X80210Y74858D01*
D02*
G37*
G36*
X40840Y63730D02*
X36462D01*
Y60750D01*
X36891Y58588D01*
X38116Y56756D01*
X39948Y55531D01*
X40840Y55354D01*
Y63730D01*
D02*
G37*
G36*
X338890Y70380D02*
X326670D01*
X326968Y68115D01*
X328333Y64822D01*
X330503Y61993D01*
X333332Y59823D01*
X336625Y58458D01*
X338890Y58160D01*
Y70380D01*
D02*
G37*
G36*
X47758Y63730D02*
X43380D01*
Y55354D01*
X44272Y55531D01*
X46104Y56756D01*
X47329Y58588D01*
X47758Y60750D01*
Y63730D01*
D02*
G37*
G36*
X573600Y59730D02*
X567830D01*
Y47710D01*
X573600D01*
Y59730D01*
D02*
G37*
G36*
X565290D02*
X559520D01*
Y47710D01*
X565290D01*
Y59730D01*
D02*
G37*
G36*
X520000Y91608D02*
X517854Y91181D01*
X516035Y89965D01*
X514819Y88146D01*
X514392Y86000D01*
X514819Y83854D01*
X514902Y83730D01*
Y74250D01*
X513560D01*
Y47750D01*
X527560D01*
Y74250D01*
X525098D01*
Y83730D01*
X525181Y83854D01*
X525608Y86000D01*
X525181Y88146D01*
X523965Y89965D01*
X522146Y91181D01*
X520000Y91608D01*
D02*
G37*
G36*
X67510Y74858D02*
X65364Y74431D01*
X63545Y73215D01*
X62329Y71396D01*
X61902Y69250D01*
Y60750D01*
X62329Y58604D01*
X63545Y56785D01*
X65364Y55569D01*
X67510Y55142D01*
X69656Y55569D01*
X71475Y56785D01*
X72691Y58604D01*
X73118Y60750D01*
Y69250D01*
X72691Y71396D01*
X71475Y73215D01*
X69656Y74431D01*
X67510Y74858D01*
D02*
G37*
G36*
X54810D02*
X52664Y74431D01*
X50845Y73215D01*
X49629Y71396D01*
X49202Y69250D01*
Y60750D01*
X49629Y58604D01*
X50845Y56785D01*
X52664Y55569D01*
X54810Y55142D01*
X56956Y55569D01*
X58775Y56785D01*
X59991Y58604D01*
X60418Y60750D01*
Y69250D01*
X59991Y71396D01*
X58775Y73215D01*
X56956Y74431D01*
X54810Y74858D01*
D02*
G37*
G36*
X181300Y74396D02*
X180408Y74219D01*
X178576Y72994D01*
X177351Y71162D01*
X176921Y69000D01*
Y66020D01*
X181300D01*
Y74396D01*
D02*
G37*
G36*
X457230Y70730D02*
X448960D01*
Y63210D01*
X457230D01*
Y70730D01*
D02*
G37*
G36*
X183840Y74396D02*
Y66020D01*
X188218D01*
Y69000D01*
X187789Y71162D01*
X186564Y72994D01*
X184732Y74219D01*
X183840Y74396D01*
D02*
G37*
G36*
X43380Y74646D02*
Y66270D01*
X47758D01*
Y69250D01*
X47329Y71412D01*
X46104Y73244D01*
X44272Y74469D01*
X43380Y74646D01*
D02*
G37*
G36*
X40840D02*
X39948Y74469D01*
X38116Y73244D01*
X36891Y71412D01*
X36462Y69250D01*
Y66270D01*
X40840D01*
Y74646D01*
D02*
G37*
G36*
X389690Y70380D02*
X377470D01*
X377769Y68115D01*
X379133Y64822D01*
X381303Y61993D01*
X384132Y59823D01*
X387425Y58458D01*
X389690Y58160D01*
Y70380D01*
D02*
G37*
G36*
X353650D02*
X341430D01*
Y58160D01*
X343695Y58458D01*
X346988Y59823D01*
X349817Y61993D01*
X351987Y64822D01*
X353352Y68115D01*
X353650Y70380D01*
D02*
G37*
G36*
X404450D02*
X392230D01*
Y58160D01*
X394495Y58458D01*
X397788Y59823D01*
X400617Y61993D01*
X402787Y64822D01*
X404151Y68115D01*
X404450Y70380D01*
D02*
G37*
G36*
X573600Y74290D02*
X567830D01*
Y62270D01*
X573600D01*
Y74290D01*
D02*
G37*
G36*
X565290D02*
X559520D01*
Y62270D01*
X565290D01*
Y74290D01*
D02*
G37*
G36*
X239559Y298230D02*
X235180D01*
Y289854D01*
X236072Y290031D01*
X237904Y291256D01*
X239129Y293088D01*
X239559Y295250D01*
Y298230D01*
D02*
G37*
G36*
X232640D02*
X228262D01*
Y295250D01*
X228691Y293088D01*
X229916Y291256D01*
X231748Y290031D01*
X232640Y289854D01*
Y298230D01*
D02*
G37*
G36*
X338890Y19580D02*
X326670D01*
X326968Y17315D01*
X328333Y14022D01*
X330503Y11193D01*
X333332Y9023D01*
X336625Y7659D01*
X338890Y7360D01*
Y19580D01*
D02*
G37*
G36*
X353650D02*
X341430D01*
Y7360D01*
X343695Y7659D01*
X346988Y9023D01*
X349817Y11193D01*
X351987Y14022D01*
X353352Y17315D01*
X353650Y19580D01*
D02*
G37*
G36*
X259000Y320608D02*
X256854Y320181D01*
X255035Y318965D01*
X253819Y317146D01*
X253392Y315000D01*
X253819Y312854D01*
X255035Y311035D01*
X255232Y310903D01*
Y307546D01*
X254129Y305896D01*
X253702Y303750D01*
Y295250D01*
X254129Y293104D01*
X255345Y291285D01*
X257164Y290069D01*
X259310Y289642D01*
X261456Y290069D01*
X263275Y291285D01*
X264491Y293104D01*
X264918Y295250D01*
Y303750D01*
X264491Y305896D01*
X263388Y307546D01*
Y311668D01*
X264181Y312854D01*
X264608Y315000D01*
X264181Y317146D01*
X262965Y318965D01*
X261146Y320181D01*
X259000Y320608D01*
D02*
G37*
G36*
X474980Y19730D02*
X465210D01*
Y9460D01*
X474980D01*
Y19730D01*
D02*
G37*
G36*
X548000Y305286D02*
X545390Y304943D01*
X542957Y303935D01*
X540868Y302332D01*
X539265Y300243D01*
X538257Y297810D01*
X537914Y295200D01*
X538257Y292589D01*
X539265Y290157D01*
X540868Y288068D01*
X542957Y286465D01*
X545390Y285457D01*
X548000Y285114D01*
X550611Y285457D01*
X553043Y286465D01*
X555132Y288068D01*
X556735Y290157D01*
X557743Y292589D01*
X558086Y295200D01*
X557743Y297810D01*
X556735Y300243D01*
X555132Y302332D01*
X553043Y303935D01*
X550611Y304943D01*
X548000Y305286D01*
D02*
G37*
G36*
X389690Y19580D02*
X377470D01*
X377769Y17315D01*
X379133Y14022D01*
X381303Y11193D01*
X384132Y9023D01*
X387425Y7659D01*
X389690Y7360D01*
Y19580D01*
D02*
G37*
G36*
X404450D02*
X392230D01*
Y7360D01*
X394495Y7659D01*
X397788Y9023D01*
X400617Y11193D01*
X402787Y14022D01*
X404151Y17315D01*
X404450Y19580D01*
D02*
G37*
G36*
X235180Y309146D02*
Y300770D01*
X239559D01*
Y303750D01*
X239129Y305912D01*
X237904Y307744D01*
X236072Y308969D01*
X235180Y309146D01*
D02*
G37*
G36*
X549270Y330559D02*
Y321870D01*
X557959D01*
X557782Y323221D01*
X556770Y325663D01*
X555161Y327761D01*
X553063Y329370D01*
X550621Y330382D01*
X549270Y330559D01*
D02*
G37*
G36*
X546730D02*
X545379Y330382D01*
X542937Y329370D01*
X540839Y327761D01*
X539230Y325663D01*
X538218Y323221D01*
X538041Y321870D01*
X546730D01*
Y330559D01*
D02*
G37*
G36*
X575000Y23000D02*
X555000D01*
Y3000D01*
X575000D01*
Y23000D01*
D02*
G37*
G36*
X558000Y356000D02*
X538000D01*
Y336000D01*
X558000D01*
Y356000D01*
D02*
G37*
G36*
X589130Y11730D02*
X580441D01*
X580618Y10379D01*
X581630Y7937D01*
X583239Y5839D01*
X585337Y4230D01*
X587779Y3218D01*
X589130Y3041D01*
Y11730D01*
D02*
G37*
G36*
X546730Y319330D02*
X538041D01*
X538218Y317979D01*
X539230Y315537D01*
X540839Y313439D01*
X542937Y311830D01*
X545379Y310818D01*
X546730Y310641D01*
Y319330D01*
D02*
G37*
G36*
X435730Y314540D02*
X428210D01*
Y306270D01*
X435730D01*
Y314540D01*
D02*
G37*
G36*
X600359Y11730D02*
X591670D01*
Y3041D01*
X593021Y3218D01*
X595463Y4230D01*
X597561Y5839D01*
X599170Y7937D01*
X600182Y10379D01*
X600359Y11730D01*
D02*
G37*
G36*
X557959Y319330D02*
X549270D01*
Y310641D01*
X550621Y310818D01*
X553063Y311830D01*
X555161Y313439D01*
X556770Y315537D01*
X557782Y317979D01*
X557959Y319330D01*
D02*
G37*
G36*
X487290Y19730D02*
X477520D01*
Y9460D01*
X487290D01*
Y19730D01*
D02*
G37*
G36*
X556350Y161980D02*
X548830D01*
Y153710D01*
X556350D01*
Y161980D01*
D02*
G37*
G36*
X411790Y145170D02*
X403520D01*
Y137650D01*
X411790D01*
Y145170D01*
D02*
G37*
G36*
X381350Y180980D02*
X373830D01*
Y172710D01*
X381350D01*
Y180980D01*
D02*
G37*
G36*
X556350Y172790D02*
X548830D01*
Y164520D01*
X556350D01*
Y172790D01*
D02*
G37*
G36*
X400980Y145170D02*
X392710D01*
Y137650D01*
X400980D01*
Y145170D01*
D02*
G37*
G36*
X458730Y131790D02*
X448460D01*
Y122020D01*
X458730D01*
Y131790D01*
D02*
G37*
G36*
X94180Y129146D02*
Y120770D01*
X98559D01*
Y123750D01*
X98129Y125912D01*
X96904Y127744D01*
X95072Y128969D01*
X94180Y129146D01*
D02*
G37*
G36*
X517000Y140500D02*
X501000D01*
Y122500D01*
X517000D01*
Y140500D01*
D02*
G37*
G36*
X471540Y131790D02*
X461270D01*
Y122020D01*
X471540D01*
Y131790D01*
D02*
G37*
G36*
X556350Y189980D02*
X548830D01*
Y181710D01*
X556350D01*
Y189980D01*
D02*
G37*
G36*
X591670Y22959D02*
Y14270D01*
X600359D01*
X600182Y15621D01*
X599170Y18063D01*
X597561Y20161D01*
X595463Y21770D01*
X593021Y22782D01*
X591670Y22959D01*
D02*
G37*
G36*
X338890Y34340D02*
X336625Y34042D01*
X333332Y32677D01*
X330503Y30507D01*
X328333Y27678D01*
X326968Y24385D01*
X326670Y22120D01*
X338890D01*
Y34340D01*
D02*
G37*
G36*
X589130Y22959D02*
X587779Y22782D01*
X585337Y21770D01*
X583239Y20161D01*
X581630Y18063D01*
X580618Y15621D01*
X580441Y14270D01*
X589130D01*
Y22959D01*
D02*
G37*
G36*
X246610Y309358D02*
X244464Y308931D01*
X242645Y307715D01*
X241429Y305896D01*
X241002Y303750D01*
Y295250D01*
X241429Y293104D01*
X242532Y291454D01*
Y288186D01*
X241429Y286536D01*
X241002Y284390D01*
X241429Y282244D01*
X242645Y280425D01*
X244464Y279209D01*
X246610Y278782D01*
X248756Y279209D01*
X250575Y280425D01*
X251791Y282244D01*
X252218Y284390D01*
X251791Y286536D01*
X250688Y288186D01*
Y291454D01*
X251791Y293104D01*
X252218Y295250D01*
Y303750D01*
X251791Y305896D01*
X250575Y307715D01*
X248756Y308931D01*
X246610Y309358D01*
D02*
G37*
G36*
X341430Y34340D02*
Y22120D01*
X353650D01*
X353352Y24385D01*
X351987Y27678D01*
X349817Y30507D01*
X346988Y32677D01*
X343695Y34042D01*
X341430Y34340D01*
D02*
G37*
G36*
X381350Y191790D02*
X373830D01*
Y183520D01*
X381350D01*
Y191790D01*
D02*
G37*
G36*
X556350Y200790D02*
X548830D01*
Y192520D01*
X556350D01*
Y200790D01*
D02*
G37*
G36*
X389690Y34340D02*
X387425Y34042D01*
X384132Y32677D01*
X381303Y30507D01*
X379133Y27678D01*
X377769Y24385D01*
X377470Y22120D01*
X389690D01*
Y34340D01*
D02*
G37*
G36*
X334000Y361608D02*
X331854Y361181D01*
X331730Y361098D01*
X317000D01*
X315373Y360774D01*
X315049Y360710D01*
X313395Y359605D01*
X299888Y346098D01*
X62000D01*
X60373Y345774D01*
X60049Y345710D01*
X58395Y344605D01*
X51645Y337855D01*
X51645Y337855D01*
X15395Y301605D01*
X14290Y299951D01*
X13902Y298000D01*
Y172000D01*
X13902Y172000D01*
X13902D01*
X14290Y170049D01*
X15395Y168395D01*
X32395Y151395D01*
X34049Y150290D01*
X36000Y149902D01*
X49712D01*
Y126020D01*
X49629Y125896D01*
X49202Y123750D01*
Y115250D01*
X49629Y113104D01*
X50845Y111285D01*
X52664Y110069D01*
X54810Y109642D01*
X56956Y110069D01*
X58775Y111285D01*
X59991Y113104D01*
X60418Y115250D01*
Y123750D01*
X59991Y125896D01*
X59908Y126020D01*
Y149902D01*
X85101D01*
X85663Y148763D01*
X84435Y147163D01*
X83427Y144731D01*
X83084Y142120D01*
X83427Y139509D01*
X84435Y137077D01*
X86038Y134988D01*
X88127Y133385D01*
X90560Y132377D01*
X93170Y132034D01*
X95780Y132377D01*
X98213Y133385D01*
X100302Y134988D01*
X101905Y137077D01*
X102913Y139509D01*
X103256Y142120D01*
X102913Y144731D01*
X101905Y147163D01*
X100677Y148763D01*
X101239Y149902D01*
X110501D01*
X111063Y148763D01*
X109835Y147163D01*
X108827Y144731D01*
X108484Y142120D01*
X108827Y139509D01*
X109835Y137077D01*
X111438Y134988D01*
X113527Y133385D01*
X115960Y132377D01*
X118570Y132034D01*
X121180Y132377D01*
X123613Y133385D01*
X124773Y134275D01*
X125912Y133713D01*
Y126020D01*
X125829Y125896D01*
X125402Y123750D01*
Y115250D01*
X125829Y113104D01*
X127045Y111285D01*
X128864Y110069D01*
X131010Y109642D01*
X133156Y110069D01*
X134975Y111285D01*
X136191Y113104D01*
X136618Y115250D01*
Y123750D01*
X136191Y125896D01*
X136108Y126020D01*
Y134112D01*
X137247Y134674D01*
X138927Y133385D01*
X141360Y132377D01*
X143970Y132034D01*
X146580Y132377D01*
X149013Y133385D01*
X151102Y134988D01*
X152705Y137077D01*
X153713Y139509D01*
X154056Y142120D01*
X153713Y144731D01*
X152705Y147163D01*
X151477Y148763D01*
X152039Y149902D01*
X161301D01*
X161863Y148763D01*
X160635Y147163D01*
X159627Y144731D01*
X159284Y142120D01*
X159627Y139509D01*
X160635Y137077D01*
X162238Y134988D01*
X164327Y133385D01*
X166759Y132377D01*
X169370Y132034D01*
X171980Y132377D01*
X174413Y133385D01*
X175215Y134000D01*
X176764Y134000D01*
X176913Y133944D01*
X177290Y132049D01*
X178395Y130395D01*
X179528Y129263D01*
X179403Y127999D01*
X178605Y127465D01*
X177389Y125646D01*
X176962Y123500D01*
Y115000D01*
X177389Y112854D01*
X178605Y111035D01*
X180424Y109819D01*
X182570Y109392D01*
X184716Y109819D01*
X186535Y111035D01*
X187751Y112854D01*
X188178Y115000D01*
Y123500D01*
X188080Y123992D01*
X188650Y124297D01*
X189670Y123540D01*
X189662Y123500D01*
Y115000D01*
X190089Y112854D01*
X190172Y112730D01*
Y111730D01*
X190560Y109779D01*
X191665Y108125D01*
X198395Y101395D01*
X200049Y100290D01*
X200373Y100226D01*
X202000Y99902D01*
X214730D01*
X214854Y99819D01*
X217000Y99392D01*
X217309Y97839D01*
X216902Y97231D01*
X216850Y96972D01*
X216591Y95670D01*
X216592Y95670D01*
Y93078D01*
X87689D01*
X84288Y96479D01*
Y111454D01*
X85391Y113104D01*
X85818Y115250D01*
Y123750D01*
X85391Y125896D01*
X84175Y127715D01*
X82356Y128931D01*
X80210Y129358D01*
X78064Y128931D01*
X76245Y127715D01*
X75029Y125896D01*
X74602Y123750D01*
Y115250D01*
X75029Y113104D01*
X76132Y111454D01*
Y94790D01*
X76132Y94790D01*
X76391Y93488D01*
X76442Y93229D01*
X77326Y91906D01*
X77326Y91906D01*
X77326Y91906D01*
D01*
X77326D01*
Y91906D01*
D01*
X83116Y86116D01*
X83116Y86116D01*
X84439Y85232D01*
X84439Y85232D01*
X84439Y85232D01*
D01*
X84439Y85232D01*
X84439Y85232D01*
X86000Y84922D01*
X101775D01*
X102144Y83706D01*
X101035Y82965D01*
X99819Y81146D01*
X99392Y79000D01*
X99819Y76854D01*
X101035Y75035D01*
X101532Y74703D01*
Y73046D01*
X100429Y71396D01*
X100002Y69250D01*
Y60750D01*
X100429Y58604D01*
X101645Y56785D01*
X103464Y55569D01*
X105610Y55142D01*
X107756Y55569D01*
X109575Y56785D01*
X110791Y58604D01*
X111218Y60750D01*
Y69250D01*
X110791Y71396D01*
X109688Y73046D01*
Y76117D01*
X110181Y76854D01*
X110608Y79000D01*
X110181Y81146D01*
X108965Y82965D01*
X107856Y83706D01*
X108225Y84922D01*
X111972D01*
X112778Y83940D01*
X112392Y82000D01*
X112819Y79854D01*
X114035Y78035D01*
X114232Y77903D01*
Y73046D01*
X113129Y71396D01*
X112702Y69250D01*
Y60750D01*
X113129Y58604D01*
X114345Y56785D01*
X116164Y55569D01*
X118310Y55142D01*
X120456Y55569D01*
X122275Y56785D01*
X123491Y58604D01*
X123918Y60750D01*
Y69250D01*
X123491Y71396D01*
X122388Y73046D01*
Y78668D01*
X123181Y79854D01*
X123608Y82000D01*
X123222Y83940D01*
X123865Y84724D01*
X125135D01*
X125778Y83940D01*
X125392Y82000D01*
X125819Y79854D01*
X126932Y78189D01*
Y73046D01*
X125829Y71396D01*
X125402Y69250D01*
Y60750D01*
X125829Y58604D01*
X127045Y56785D01*
X128864Y55569D01*
X131010Y55142D01*
X133156Y55569D01*
X134975Y56785D01*
X136191Y58604D01*
X136618Y60750D01*
Y69250D01*
X136191Y71396D01*
X135088Y73046D01*
Y78219D01*
X136181Y79854D01*
X136608Y82000D01*
X136222Y83940D01*
X137028Y84922D01*
X214659D01*
X215257Y83802D01*
X214819Y83146D01*
X214392Y81000D01*
X214819Y78854D01*
X215922Y77204D01*
Y71793D01*
X215489Y71146D01*
X215062Y69000D01*
Y60500D01*
X215489Y58354D01*
X216705Y56535D01*
X218524Y55319D01*
X220670Y54892D01*
X221734Y55104D01*
X222632Y54206D01*
X222392Y53000D01*
X222708Y51413D01*
X221840Y50486D01*
X220170Y50706D01*
X217560Y50363D01*
X215127Y49355D01*
X213038Y47752D01*
X211435Y45663D01*
X210427Y43231D01*
X210084Y40620D01*
X210427Y38010D01*
X211435Y35577D01*
X213038Y33488D01*
X215127Y31885D01*
X217560Y30877D01*
X220170Y30534D01*
X221201Y30670D01*
X221763Y29530D01*
X214311Y22078D01*
X193796D01*
X192146Y23181D01*
X190000Y23608D01*
X187854Y23181D01*
X186035Y21965D01*
X184819Y20146D01*
X184392Y18000D01*
X184778Y16060D01*
X183972Y15078D01*
X182689D01*
X173448Y24319D01*
Y31485D01*
X174413Y31885D01*
X176502Y33488D01*
X178105Y35577D01*
X179113Y38010D01*
X179456Y40620D01*
X179113Y43231D01*
X178105Y45663D01*
X176502Y47752D01*
X176899Y48922D01*
X187241D01*
X187638Y47752D01*
X186035Y45663D01*
X185027Y43231D01*
X184684Y40620D01*
X185027Y38010D01*
X186035Y35577D01*
X187638Y33488D01*
X189727Y31885D01*
X192160Y30877D01*
X194770Y30534D01*
X197381Y30877D01*
X199813Y31885D01*
X201902Y33488D01*
X203505Y35577D01*
X204513Y38010D01*
X204856Y40620D01*
X204513Y43231D01*
X204113Y44195D01*
X210854Y50936D01*
X210854Y50936D01*
X211738Y52259D01*
X212048Y53820D01*
Y56704D01*
X213151Y58354D01*
X213578Y60500D01*
Y69000D01*
X213151Y71146D01*
X211935Y72965D01*
X210116Y74181D01*
X207970Y74608D01*
X205824Y74181D01*
X204005Y72965D01*
X202789Y71146D01*
X202362Y69000D01*
Y60500D01*
X202789Y58354D01*
X203892Y56704D01*
Y55509D01*
X198345Y49963D01*
X197381Y50363D01*
X196815Y50437D01*
X196407Y51640D01*
X198154Y53386D01*
X198154Y53386D01*
X199038Y54709D01*
X199089Y54968D01*
X199348Y56270D01*
X199348Y56270D01*
Y56704D01*
X200451Y58354D01*
X200878Y60500D01*
Y69000D01*
X200451Y71146D01*
X199235Y72965D01*
X197416Y74181D01*
X195270Y74608D01*
X193124Y74181D01*
X191305Y72965D01*
X190089Y71146D01*
X189662Y69000D01*
Y60500D01*
X190089Y58354D01*
X190193Y58198D01*
X189594Y57078D01*
X188294D01*
X187695Y58198D01*
X187789Y58338D01*
X188218Y60500D01*
Y63480D01*
X176921D01*
Y60500D01*
X177351Y58338D01*
X177445Y58198D01*
X176846Y57078D01*
X156350D01*
X154789Y56768D01*
X153466Y55884D01*
X147545Y49963D01*
X146580Y50363D01*
X143970Y50706D01*
X141360Y50363D01*
X138927Y49355D01*
X136838Y47752D01*
X135235Y45663D01*
X134227Y43231D01*
X133884Y40620D01*
X134227Y38010D01*
X135235Y35577D01*
X136838Y33488D01*
X138927Y31885D01*
X141360Y30877D01*
X143970Y30534D01*
X146580Y30877D01*
X149013Y31885D01*
X151102Y33488D01*
X152705Y35577D01*
X153713Y38010D01*
X154056Y40620D01*
X153713Y43231D01*
X153313Y44195D01*
X158039Y48922D01*
X161841D01*
X162238Y47752D01*
X160635Y45663D01*
X159627Y43231D01*
X159284Y40620D01*
X159627Y38010D01*
X160635Y35577D01*
X162238Y33488D01*
X164327Y31885D01*
X165292Y31485D01*
Y22630D01*
X165292Y22630D01*
X165551Y21328D01*
X165602Y21069D01*
X166486Y19746D01*
X166486Y19746D01*
X166486Y19746D01*
D01*
X166486D01*
Y19746D01*
D01*
X178116Y8116D01*
X178116Y8116D01*
X179439Y7232D01*
X179698Y7181D01*
X181000Y6922D01*
X181000Y6922D01*
X231000D01*
X231000Y6922D01*
X232302Y7181D01*
X232561Y7232D01*
X233884Y8116D01*
X261654Y35886D01*
X261654Y35886D01*
X261654Y35886D01*
X262538Y37209D01*
X262589Y37468D01*
X262848Y38770D01*
X262848Y38770D01*
Y56704D01*
X263951Y58354D01*
X264378Y60500D01*
Y69000D01*
X263951Y71146D01*
X262735Y72965D01*
X260916Y74181D01*
X258770Y74608D01*
X256624Y74181D01*
X254805Y72965D01*
X253589Y71146D01*
X253162Y69000D01*
Y60500D01*
X253589Y58354D01*
X254692Y56704D01*
Y40459D01*
X229311Y15078D01*
X220505D01*
X220019Y16252D01*
X248954Y45186D01*
X248954Y45186D01*
X249838Y46509D01*
X249889Y46768D01*
X250148Y48070D01*
X250148Y48070D01*
Y56704D01*
X251251Y58354D01*
X251678Y60500D01*
Y69000D01*
X251251Y71146D01*
X250035Y72965D01*
X248216Y74181D01*
X246070Y74608D01*
X243924Y74181D01*
X242105Y72965D01*
X240889Y71146D01*
X240462Y69000D01*
Y60500D01*
X240889Y58354D01*
X241992Y56704D01*
Y49759D01*
X231260Y39027D01*
X230121Y39589D01*
X230256Y40620D01*
X229913Y43231D01*
X228905Y45663D01*
X228366Y46365D01*
X228813Y47554D01*
X230146Y47819D01*
X231796Y48922D01*
X232000D01*
X232000Y48922D01*
X233302Y49181D01*
X233561Y49232D01*
X234884Y50116D01*
X234884Y50116D01*
X234884Y50116D01*
X236254Y51486D01*
X236254Y51486D01*
X237138Y52809D01*
X237448Y54370D01*
Y56704D01*
X238551Y58354D01*
X238978Y60500D01*
Y69000D01*
X238551Y71146D01*
X237335Y72965D01*
X235516Y74181D01*
X233370Y74608D01*
X231224Y74181D01*
X229405Y72965D01*
X228189Y71146D01*
X227762Y69000D01*
Y60500D01*
X227958Y59515D01*
X227656Y59064D01*
X226393Y58939D01*
X226038Y59294D01*
X226278Y60500D01*
Y69000D01*
X225851Y71146D01*
X224635Y72965D01*
X224078Y73337D01*
Y77204D01*
X225181Y78854D01*
X225608Y81000D01*
X225181Y83146D01*
X224743Y83802D01*
X225341Y84922D01*
X275000D01*
X275000Y84922D01*
X276302Y85181D01*
X276561Y85232D01*
X277884Y86116D01*
X298884Y107116D01*
X299768Y108439D01*
X300078Y110000D01*
X299823Y111282D01*
Y270718D01*
X300078Y272000D01*
X299823Y273282D01*
Y305416D01*
X308584Y314177D01*
X327416D01*
X336177Y305416D01*
Y256000D01*
X336176Y256000D01*
X336177D01*
X336468Y254537D01*
X337296Y253296D01*
X351546Y239046D01*
X352787Y238218D01*
X354250Y237927D01*
X389720D01*
X390525Y236945D01*
X390486Y236750D01*
X390778Y235287D01*
X391470Y234250D01*
X390778Y233213D01*
X390486Y231750D01*
X390778Y230287D01*
X391470Y229250D01*
X390778Y228213D01*
X390486Y226750D01*
X390778Y225287D01*
X391470Y224250D01*
X390778Y223213D01*
X390486Y221750D01*
X390778Y220287D01*
X391470Y219250D01*
X390778Y218213D01*
X390486Y216750D01*
X390778Y215287D01*
X391446Y214286D01*
X390740Y213229D01*
X390446Y211750D01*
X390485Y211555D01*
X389679Y210573D01*
X362750D01*
X361287Y210282D01*
X360046Y209454D01*
X353856Y203263D01*
X353028Y202023D01*
X352737Y200560D01*
Y191750D01*
X347810D01*
Y172750D01*
X347810D01*
Y172722D01*
X346912Y171823D01*
X342584D01*
X337823Y176584D01*
Y200416D01*
X360584Y223177D01*
X375940D01*
X376035Y223035D01*
X377854Y221819D01*
X380000Y221392D01*
X382146Y221819D01*
X383965Y223035D01*
X385181Y224854D01*
X385608Y227000D01*
X385181Y229146D01*
X383965Y230965D01*
X382146Y232181D01*
X380000Y232608D01*
X377854Y232181D01*
X376035Y230965D01*
X375940Y230823D01*
X359000D01*
X357537Y230532D01*
X356296Y229704D01*
X331296Y204704D01*
X330468Y203463D01*
X330177Y202000D01*
Y175000D01*
X330177Y175000D01*
X330177D01*
X330468Y173537D01*
X331296Y172296D01*
X338296Y165296D01*
X339537Y164468D01*
X341000Y164177D01*
X353000D01*
X354463Y164468D01*
X355704Y165296D01*
X355704Y165296D01*
X355704Y165296D01*
X359263Y168856D01*
X360092Y170097D01*
X360383Y171560D01*
X360383Y171560D01*
X360383Y171560D01*
Y171560D01*
Y172750D01*
X363770D01*
Y172710D01*
X371290D01*
Y182250D01*
Y191790D01*
X363770D01*
Y191750D01*
X360383D01*
Y198976D01*
X364334Y202927D01*
X404310D01*
X405773Y203218D01*
X407014Y204046D01*
X407842Y205287D01*
X408133Y206750D01*
X407842Y208213D01*
X407174Y209214D01*
X407880Y210271D01*
X407922Y210480D01*
X404782D01*
X404310Y210574D01*
X399310D01*
Y212926D01*
X404310D01*
X404782Y213020D01*
X407922D01*
X407880Y213229D01*
X407174Y214286D01*
X407842Y215287D01*
X408133Y216750D01*
X407842Y218213D01*
X407150Y219250D01*
X407842Y220287D01*
X408133Y221750D01*
X407842Y223213D01*
X407150Y224250D01*
X407842Y225287D01*
X408133Y226750D01*
X407842Y228213D01*
X407150Y229250D01*
X407842Y230287D01*
X408133Y231750D01*
X407842Y233213D01*
X407150Y234250D01*
X407842Y235287D01*
X408133Y236750D01*
X407842Y238213D01*
X407150Y239250D01*
X407842Y240287D01*
X408133Y241750D01*
X407842Y243213D01*
X407150Y244250D01*
X407842Y245287D01*
X408133Y246750D01*
X407842Y248213D01*
X407150Y249250D01*
X407842Y250287D01*
X408133Y251750D01*
X407842Y253213D01*
X407150Y254250D01*
X407842Y255287D01*
X408133Y256750D01*
X407842Y258213D01*
X407150Y259250D01*
X407842Y260287D01*
X408133Y261750D01*
X407842Y263213D01*
X407014Y264454D01*
X405773Y265282D01*
X404310Y265573D01*
X386834D01*
X375704Y276704D01*
X374463Y277532D01*
X373000Y277823D01*
X367000D01*
X365537Y277532D01*
X364296Y276704D01*
X362001Y274408D01*
X361000Y274608D01*
X358854Y274181D01*
X357823Y274732D01*
Y320000D01*
X357532Y321463D01*
X356704Y322704D01*
X342610Y336797D01*
X341884Y337884D01*
X340561Y338768D01*
X339000Y339078D01*
X319796D01*
X318146Y340181D01*
X316000Y340608D01*
X313854Y340181D01*
X312035Y338965D01*
X310819Y337146D01*
X310392Y335000D01*
X310819Y332854D01*
X312035Y331035D01*
X313854Y329819D01*
X316000Y329392D01*
X318146Y329819D01*
X319579Y330776D01*
X320278Y330077D01*
X320425Y329802D01*
X319319Y328146D01*
X318892Y326000D01*
X319319Y323854D01*
X319928Y322943D01*
X319329Y321823D01*
X307000D01*
X305537Y321532D01*
X304296Y320704D01*
X293296Y309704D01*
X292468Y308463D01*
X292177Y307000D01*
Y276078D01*
X225288D01*
Y291454D01*
X226391Y293104D01*
X226818Y295250D01*
Y303750D01*
X226391Y305896D01*
X226391Y305896D01*
X226391Y305896D01*
X226302Y306180D01*
X226302Y306181D01*
X226561Y306232D01*
X227884Y307116D01*
X228162Y307395D01*
X229144Y306589D01*
X228691Y305912D01*
X228262Y303750D01*
Y300770D01*
X232640D01*
Y309146D01*
X231748Y308969D01*
X231071Y308516D01*
X230265Y309498D01*
X238884Y318116D01*
X238884Y318116D01*
X239768Y319439D01*
X240078Y321000D01*
Y327204D01*
X241181Y328854D01*
X241608Y331000D01*
X241181Y333146D01*
X240088Y334782D01*
X240686Y335902D01*
X266912D01*
Y306020D01*
X266829Y305896D01*
X266402Y303750D01*
Y295250D01*
X266829Y293104D01*
X268045Y291285D01*
X269864Y290069D01*
X272010Y289642D01*
X274156Y290069D01*
X275975Y291285D01*
X277191Y293104D01*
X277618Y295250D01*
Y303750D01*
X277191Y305896D01*
X277108Y306020D01*
Y335902D01*
X302000D01*
X303951Y336290D01*
X305605Y337395D01*
X305605Y337395D01*
X305605Y337395D01*
X319112Y350902D01*
X331730D01*
X331854Y350819D01*
X334000Y350392D01*
X336146Y350819D01*
X336270Y350902D01*
X398902D01*
Y333000D01*
X398902Y333000D01*
X398902D01*
X399290Y331049D01*
X400395Y329395D01*
X412395Y317395D01*
X414049Y316290D01*
X414373Y316226D01*
X416000Y315902D01*
X447888D01*
X447902Y315888D01*
Y314500D01*
X445790D01*
Y314540D01*
X438270D01*
Y305000D01*
X437000D01*
Y303730D01*
X428210D01*
Y295460D01*
D01*
Y295460D01*
X427953Y295204D01*
X425204D01*
X423963Y296032D01*
X422500Y296323D01*
X405500D01*
X405465Y296316D01*
X404000Y296608D01*
X401854Y296181D01*
X400035Y294965D01*
X398819Y293146D01*
X398392Y291000D01*
X398521Y290355D01*
X397400Y289757D01*
X395454Y291704D01*
X394213Y292532D01*
X392750Y292823D01*
X389060D01*
X388965Y292965D01*
X387146Y294181D01*
X385000Y294608D01*
X382854Y294181D01*
X381035Y292965D01*
X379819Y291146D01*
X379392Y289000D01*
X379819Y286854D01*
X381035Y285035D01*
X382854Y283819D01*
X385000Y283392D01*
X387146Y283819D01*
X388965Y285035D01*
X389060Y285177D01*
X391166D01*
X396046Y280296D01*
X397287Y279468D01*
X398750Y279177D01*
X407000D01*
X408255Y279426D01*
X409236Y278620D01*
Y270500D01*
X409528Y269037D01*
X410356Y267796D01*
X411597Y266968D01*
X413060Y266677D01*
X414523Y266968D01*
X415560Y267660D01*
X416597Y266968D01*
X418060Y266677D01*
X419523Y266968D01*
X420560Y267660D01*
X421597Y266968D01*
X423060Y266677D01*
X424523Y266968D01*
X425560Y267660D01*
X426597Y266968D01*
X426913Y266905D01*
X427282Y265689D01*
X426167Y264575D01*
X426000Y264608D01*
X423854Y264181D01*
X422035Y262965D01*
X420819Y261146D01*
X420392Y259000D01*
X420819Y256854D01*
X422035Y255035D01*
X423854Y253819D01*
X426000Y253392D01*
X428146Y253819D01*
X429965Y255035D01*
X431181Y256854D01*
X431608Y259000D01*
X431575Y259167D01*
X435500Y263093D01*
X439426Y259167D01*
X439392Y259000D01*
X439819Y256854D01*
X441035Y255035D01*
X442854Y253819D01*
X445000Y253392D01*
X447146Y253819D01*
X448965Y255035D01*
X450181Y256854D01*
X450608Y259000D01*
X450181Y261146D01*
X448965Y262965D01*
X447146Y264181D01*
X445000Y264608D01*
X444833Y264575D01*
X443772Y265635D01*
X444141Y266851D01*
X444539Y266930D01*
X445596Y267636D01*
X446597Y266968D01*
X448060Y266677D01*
X449523Y266968D01*
X450560Y267660D01*
X451597Y266968D01*
X453060Y266677D01*
X453255Y266715D01*
X454237Y265910D01*
Y256940D01*
X454236Y256940D01*
X454237D01*
X454528Y255477D01*
X455356Y254236D01*
X455425Y254167D01*
X455392Y254000D01*
X455819Y251854D01*
X457035Y250035D01*
X458854Y248819D01*
X461000Y248392D01*
X463146Y248819D01*
X464965Y250035D01*
X466181Y251854D01*
X466608Y254000D01*
X466181Y256146D01*
X464965Y257965D01*
X463146Y259181D01*
X461883Y259432D01*
Y261205D01*
X463004Y261804D01*
X463597Y261408D01*
X465060Y261117D01*
X471940D01*
X472187Y261166D01*
X473243Y260460D01*
X473278Y260287D01*
X473970Y259250D01*
X473278Y258213D01*
X472986Y256750D01*
X473278Y255287D01*
X473970Y254250D01*
X473278Y253213D01*
X472986Y251750D01*
X473278Y250287D01*
X473970Y249250D01*
X473278Y248213D01*
X472986Y246750D01*
X473278Y245287D01*
X473970Y244250D01*
X473278Y243213D01*
X472986Y241750D01*
X473278Y240287D01*
X473970Y239250D01*
X473278Y238213D01*
X472986Y236750D01*
X473278Y235287D01*
X473970Y234250D01*
X473278Y233213D01*
X472986Y231750D01*
X473278Y230287D01*
X473970Y229250D01*
X473278Y228213D01*
X472986Y226750D01*
X473278Y225287D01*
X473970Y224250D01*
X473278Y223213D01*
X472986Y221750D01*
X473278Y220287D01*
X473970Y219250D01*
X473278Y218213D01*
X472986Y216750D01*
X473278Y215287D01*
X473970Y214250D01*
X473278Y213213D01*
X472986Y211750D01*
X473278Y210287D01*
X473970Y209250D01*
X473278Y208213D01*
X472986Y206750D01*
X473278Y205287D01*
X474106Y204046D01*
X475347Y203218D01*
X476810Y202927D01*
X486810D01*
X488273Y203218D01*
X489514Y204046D01*
X490342Y205287D01*
X490633Y206750D01*
X490342Y208213D01*
X489650Y209250D01*
X490342Y210287D01*
X490633Y211750D01*
X490342Y213213D01*
X489650Y214250D01*
X490342Y215287D01*
X490633Y216750D01*
X490342Y218213D01*
X489650Y219250D01*
X490342Y220287D01*
X490633Y221750D01*
X490342Y223213D01*
X489650Y224250D01*
X490342Y225287D01*
X490633Y226750D01*
X490342Y228213D01*
X489650Y229250D01*
X490342Y230287D01*
X490633Y231750D01*
X490595Y231945D01*
X491400Y232927D01*
X498197D01*
X499854Y231819D01*
X502000Y231392D01*
X504146Y231819D01*
X505965Y233035D01*
X507181Y234854D01*
X507608Y237000D01*
X507181Y239146D01*
X505965Y240965D01*
X504146Y242181D01*
X502000Y242608D01*
X499854Y242181D01*
X498035Y240965D01*
X497773Y240573D01*
X491400D01*
X490595Y241555D01*
X490633Y241750D01*
X490342Y243213D01*
X489650Y244250D01*
X490342Y245287D01*
X490633Y246750D01*
X490342Y248213D01*
X489650Y249250D01*
X490342Y250287D01*
X490633Y251750D01*
X490342Y253213D01*
X489650Y254250D01*
X490342Y255287D01*
X490633Y256750D01*
X490342Y258213D01*
X489650Y259250D01*
X490342Y260287D01*
X490633Y261750D01*
X490342Y263213D01*
X489514Y264454D01*
X488273Y265282D01*
X486810Y265573D01*
X479640D01*
X479154Y266747D01*
X490704Y278296D01*
X491532Y279537D01*
X491823Y281000D01*
X491824Y281000D01*
X491823Y281000D01*
Y281000D01*
Y292750D01*
X495500D01*
Y311250D01*
X492078D01*
Y314000D01*
X492078Y314000D01*
X491819Y315302D01*
X491768Y315561D01*
X490952Y316782D01*
X491502Y317811D01*
X491563Y317902D01*
X497888D01*
X500902Y314888D01*
Y311250D01*
X498500D01*
Y292750D01*
X500902D01*
Y286000D01*
X500902Y286000D01*
X500902D01*
X501290Y284049D01*
X502395Y282395D01*
X518595Y266195D01*
X520249Y265090D01*
X520573Y265026D01*
X522200Y264702D01*
X525180D01*
X525779Y263582D01*
X524819Y262146D01*
X524392Y260000D01*
X524819Y257854D01*
X525922Y256204D01*
Y251250D01*
X522500D01*
Y232750D01*
X525922D01*
Y200750D01*
X522810D01*
Y195073D01*
X511250D01*
X509787Y194782D01*
X508546Y193954D01*
X498416Y183823D01*
X472584D01*
X471883Y184524D01*
Y193000D01*
Y198000D01*
X471592Y199463D01*
X470764Y200704D01*
X469523Y201532D01*
X468060Y201823D01*
X466597Y201532D01*
X465560Y200840D01*
X464523Y201532D01*
X463060Y201823D01*
X461597Y201532D01*
X460560Y200840D01*
X459523Y201532D01*
X458060Y201823D01*
X456597Y201532D01*
X455596Y200864D01*
X454539Y201570D01*
X454330Y201612D01*
Y198472D01*
X454236Y198000D01*
Y193000D01*
X451790D01*
Y201612D01*
X451581Y201570D01*
X450560Y200888D01*
X449539Y201570D01*
X449330Y201612D01*
Y193000D01*
X446884D01*
Y198000D01*
X446790Y198472D01*
Y201612D01*
X446581Y201570D01*
X445524Y200864D01*
X444523Y201532D01*
X443060Y201823D01*
X441597Y201532D01*
X440560Y200840D01*
X439523Y201532D01*
X438060Y201823D01*
X436597Y201532D01*
X435560Y200840D01*
X434523Y201532D01*
X433060Y201823D01*
X431597Y201532D01*
X430560Y200840D01*
X429523Y201532D01*
X428060Y201823D01*
X426597Y201532D01*
X425560Y200840D01*
X424523Y201532D01*
X423060Y201823D01*
X421597Y201532D01*
X420560Y200840D01*
X419523Y201532D01*
X418060Y201823D01*
X416597Y201532D01*
X415560Y200840D01*
X414523Y201532D01*
X413060Y201823D01*
X411597Y201532D01*
X410356Y200704D01*
X409528Y199463D01*
X409236Y198000D01*
Y188000D01*
X409528Y186537D01*
X410356Y185296D01*
X411597Y184468D01*
X413060Y184177D01*
X414523Y184468D01*
X415560Y185160D01*
X416597Y184468D01*
X418060Y184177D01*
X419523Y184468D01*
X420560Y185160D01*
X421597Y184468D01*
X423060Y184177D01*
X424523Y184468D01*
X425560Y185160D01*
X426597Y184468D01*
X428060Y184177D01*
X428255Y184215D01*
X429237Y183410D01*
Y180644D01*
X428666Y180074D01*
X406250D01*
X404787Y179782D01*
X403546Y178954D01*
X399546Y174954D01*
X398718Y173713D01*
X398427Y172250D01*
Y171190D01*
X394098D01*
Y172888D01*
X399000Y177790D01*
X399146Y177819D01*
X400965Y179035D01*
X402181Y180854D01*
X402608Y183000D01*
X402181Y185146D01*
X400965Y186965D01*
X399146Y188181D01*
X397000Y188608D01*
X394854Y188181D01*
X393035Y186965D01*
X391819Y185146D01*
X391790Y185000D01*
X385395Y178605D01*
X384290Y176951D01*
X383902Y175000D01*
Y166000D01*
X384290Y164049D01*
X385395Y162395D01*
X388955Y158835D01*
X390609Y157730D01*
X390609Y157730D01*
X390609Y157730D01*
D01*
X390609Y157730D01*
X390609Y157730D01*
X392560Y157342D01*
X392750D01*
Y155230D01*
X392710D01*
Y147710D01*
X411790D01*
Y155230D01*
X411750D01*
Y157342D01*
X420500D01*
Y154790D01*
X420460D01*
Y147270D01*
X430000D01*
Y144730D01*
X420460D01*
Y137210D01*
X426341D01*
X426827Y136037D01*
X420395Y129605D01*
X419290Y127951D01*
X418902Y126000D01*
Y120270D01*
X418819Y120146D01*
X418392Y118000D01*
X418819Y115854D01*
X418902Y115730D01*
Y115120D01*
X418902Y115120D01*
X418902D01*
X419290Y113169D01*
X420395Y111515D01*
X431462Y100448D01*
Y56672D01*
X419395Y44605D01*
X418290Y42951D01*
X417902Y41000D01*
Y25000D01*
X417902Y25000D01*
X417902D01*
X418290Y23049D01*
X419395Y21395D01*
X423395Y17395D01*
X425049Y16290D01*
X427000Y15902D01*
X434750D01*
Y9500D01*
X456750D01*
Y32500D01*
X450848D01*
Y36638D01*
X456875Y42665D01*
X465827Y33713D01*
X465341Y32540D01*
X465210D01*
Y22270D01*
X487290D01*
Y31902D01*
X496888D01*
X503395Y25395D01*
X505049Y24290D01*
X507000Y23902D01*
X550000D01*
X551951Y24290D01*
X553605Y25395D01*
X553605Y25395D01*
X553605Y25395D01*
X561112Y32902D01*
X579000D01*
X580951Y33290D01*
X582605Y34395D01*
X582605Y34395D01*
X582605Y34395D01*
X593605Y45395D01*
X594710Y47049D01*
X595098Y49000D01*
X595098Y49000D01*
X595098Y49000D01*
Y49000D01*
Y72730D01*
X595181Y72854D01*
X595608Y75000D01*
X595181Y77146D01*
X593965Y78965D01*
X592146Y80181D01*
X590000Y80608D01*
X587854Y80181D01*
X586035Y78965D01*
X584819Y77146D01*
X584392Y75000D01*
X584819Y72854D01*
X584902Y72730D01*
Y51112D01*
X576888Y43098D01*
X559000D01*
X557049Y42710D01*
X555395Y41605D01*
X547888Y34098D01*
X542967D01*
X542481Y35271D01*
X547165Y39955D01*
X548270Y41609D01*
X548658Y43560D01*
X548658Y43560D01*
X548658Y43560D01*
Y43560D01*
Y47750D01*
X550560D01*
Y74250D01*
X536560D01*
Y47750D01*
X538462D01*
Y45672D01*
X534888Y42098D01*
X516112D01*
X508098Y50112D01*
Y58000D01*
X507710Y59951D01*
X506605Y61605D01*
X503605Y64605D01*
X501951Y65710D01*
X500000Y66098D01*
X495500D01*
Y68210D01*
X495540D01*
Y75730D01*
X476460D01*
Y68210D01*
X476500D01*
Y66098D01*
X468040D01*
Y70730D01*
X459770D01*
Y63210D01*
X461341D01*
X461827Y62037D01*
X453270Y53480D01*
X442145Y42355D01*
X441040Y40701D01*
X440652Y38750D01*
Y32500D01*
X434750D01*
Y26098D01*
X429112D01*
X428098Y27112D01*
Y38888D01*
X440165Y50955D01*
X441270Y52609D01*
X441658Y54560D01*
X441658Y54560D01*
X441658Y54560D01*
Y54560D01*
Y102560D01*
X441270Y104511D01*
X440165Y106165D01*
X429396Y116934D01*
X429608Y118000D01*
X429181Y120146D01*
X429098Y120270D01*
Y123888D01*
X435862Y130652D01*
X438657D01*
X440608Y131040D01*
X442262Y132145D01*
X446105Y135988D01*
X447210Y137642D01*
X447598Y139593D01*
Y140250D01*
X448500D01*
Y140250D01*
X471500D01*
Y160434D01*
X472673Y160920D01*
X477177Y156416D01*
Y134000D01*
X477177Y134000D01*
X477177D01*
X477468Y132537D01*
X478296Y131296D01*
X480796Y128796D01*
X482037Y127968D01*
X483000Y127776D01*
Y122500D01*
X487177D01*
Y118584D01*
X473416Y104823D01*
X455000D01*
X453537Y104532D01*
X452296Y103704D01*
X449296Y100704D01*
X448468Y99463D01*
X448177Y98000D01*
Y87000D01*
X448468Y85537D01*
X449000Y84740D01*
Y80790D01*
X448960D01*
Y73270D01*
X468040D01*
Y80790D01*
X468000D01*
Y96750D01*
D01*
Y96750D01*
X468427Y97177D01*
X475000D01*
X476463Y97468D01*
X477704Y98296D01*
X477704Y98296D01*
X477704Y98296D01*
X493704Y114296D01*
X494532Y115537D01*
X494823Y117000D01*
X494823Y117000D01*
X494823Y117000D01*
Y117000D01*
Y122500D01*
X499000D01*
Y140500D01*
X484823D01*
Y155500D01*
X499000D01*
Y171177D01*
X501000D01*
Y155500D01*
X517000D01*
Y159427D01*
X522810D01*
Y153750D01*
X538770D01*
Y153710D01*
X546290D01*
Y163250D01*
Y172790D01*
X538770D01*
Y172750D01*
X522810D01*
Y167073D01*
X517000D01*
Y173500D01*
X512508D01*
X512483Y173537D01*
X511704Y174704D01*
X508704Y177704D01*
X507463Y178532D01*
X506000Y178823D01*
X505890D01*
X505404Y179997D01*
X512834Y187427D01*
X522810D01*
Y181750D01*
X538770D01*
Y181710D01*
X546290D01*
Y191250D01*
Y200790D01*
X538770D01*
Y200750D01*
X534078D01*
Y232750D01*
X537500D01*
Y251250D01*
X534078D01*
Y256204D01*
X535181Y257854D01*
X535608Y260000D01*
X535181Y262146D01*
X534221Y263582D01*
X534820Y264702D01*
X539307D01*
X540868Y262668D01*
X542902Y261107D01*
Y251250D01*
X540500D01*
Y232750D01*
X555500D01*
Y251250D01*
X553098D01*
Y261107D01*
X555132Y262668D01*
X556735Y264757D01*
X557743Y267190D01*
X558086Y269800D01*
X557743Y272411D01*
X556735Y274843D01*
X555132Y276932D01*
X553043Y278535D01*
X550611Y279543D01*
X548000Y279886D01*
X545390Y279543D01*
X542957Y278535D01*
X540868Y276932D01*
X539307Y274898D01*
X524312D01*
X511098Y288112D01*
Y292750D01*
X513500D01*
Y311250D01*
X511098D01*
Y317000D01*
X510710Y318951D01*
X509605Y320605D01*
X503605Y326605D01*
X501951Y327710D01*
X500000Y328098D01*
X492000D01*
Y347000D01*
X487098D01*
Y349000D01*
X486710Y350951D01*
X485605Y352605D01*
X478605Y359605D01*
X476951Y360710D01*
X475000Y361098D01*
X336270D01*
X336146Y361181D01*
X334000Y361608D01*
D02*
G37*
%LPD*%
G36*
X475617Y348173D02*
X475131Y347000D01*
X472000D01*
Y329027D01*
X470827Y328541D01*
X465943Y333425D01*
X466343Y334389D01*
X466686Y337000D01*
X466343Y339610D01*
X465335Y342043D01*
X463732Y344132D01*
X461643Y345735D01*
X459211Y346743D01*
X456600Y347086D01*
X453989Y346743D01*
X451557Y345735D01*
X449468Y344132D01*
X447865Y342043D01*
X446857Y339610D01*
X446514Y337000D01*
X446857Y334389D01*
X447865Y331957D01*
X449468Y329868D01*
X451557Y328265D01*
X453989Y327257D01*
X456600Y326914D01*
X459211Y327257D01*
X460175Y327657D01*
X473716Y314116D01*
X473716Y314116D01*
X474600Y313525D01*
X475039Y313232D01*
X476600Y312922D01*
X476600Y312922D01*
X482872D01*
X483578Y311866D01*
X483323Y311250D01*
X480500D01*
Y292750D01*
X484177D01*
Y282584D01*
X473057Y271464D01*
X471883Y271950D01*
Y280500D01*
X471592Y281963D01*
X470764Y283204D01*
X469523Y284032D01*
X468060Y284323D01*
X467471Y284206D01*
X466985Y285380D01*
X467965Y286035D01*
X469181Y287854D01*
X469608Y290000D01*
X469181Y292146D01*
X467965Y293965D01*
X466146Y295181D01*
X464000Y295608D01*
X462732Y295355D01*
X461750Y296161D01*
Y314500D01*
X458098D01*
Y318000D01*
X457710Y319951D01*
X456605Y321605D01*
X453605Y324605D01*
X451951Y325710D01*
X450000Y326098D01*
X434371D01*
X434123Y327343D01*
X436263Y328230D01*
X438361Y329839D01*
X439970Y331937D01*
X440982Y334379D01*
X441159Y335730D01*
X421241D01*
X421418Y334379D01*
X422430Y331937D01*
X424039Y329839D01*
X426137Y328230D01*
X428277Y327343D01*
X428029Y326098D01*
X418112D01*
X409098Y335112D01*
Y350902D01*
X472888D01*
X475617Y348173D01*
D02*
G37*
G36*
X201902Y328643D02*
X200699Y328234D01*
X200632Y328322D01*
X198543Y329925D01*
X196110Y330933D01*
X193500Y331276D01*
X190889Y330933D01*
X188457Y329925D01*
X186368Y328322D01*
X184765Y326233D01*
X183757Y323801D01*
X183414Y321190D01*
X183757Y318580D01*
X184765Y316147D01*
X186368Y314058D01*
X188457Y312455D01*
X190889Y311447D01*
X190927Y311443D01*
X191451Y310286D01*
X191100Y309761D01*
X190712Y307810D01*
Y306020D01*
X190629Y305896D01*
X190202Y303750D01*
Y295250D01*
X190629Y293104D01*
X191845Y291285D01*
X193664Y290069D01*
X195810Y289642D01*
X197956Y290069D01*
X199775Y291285D01*
X200991Y293104D01*
X201418Y295250D01*
Y303750D01*
X201397Y303855D01*
X202122Y304243D01*
X202699Y304271D01*
X202955Y304015D01*
X202902Y303750D01*
Y295250D01*
X203329Y293104D01*
X204545Y291285D01*
X206364Y290069D01*
X208510Y289642D01*
X210656Y290069D01*
X212475Y291285D01*
X213691Y293104D01*
X214118Y295250D01*
Y303750D01*
X213881Y304940D01*
X214225Y305359D01*
X215495D01*
X215839Y304940D01*
X215602Y303750D01*
Y295250D01*
X216029Y293104D01*
X217132Y291454D01*
Y276078D01*
X158225D01*
X157856Y277294D01*
X158965Y278035D01*
X159060Y278177D01*
X180000D01*
X181463Y278468D01*
X182704Y279296D01*
X185814Y282406D01*
X186642Y283647D01*
X186933Y285110D01*
Y291190D01*
X187075Y291285D01*
X188291Y293104D01*
X188718Y295250D01*
Y303750D01*
X188291Y305896D01*
X187075Y307715D01*
X185256Y308931D01*
X183110Y309358D01*
X180964Y308931D01*
X179145Y307715D01*
X177929Y305896D01*
X177502Y303750D01*
Y295250D01*
X177929Y293104D01*
X179145Y291285D01*
X179287Y291190D01*
Y286694D01*
X178416Y285823D01*
X159060D01*
X158965Y285965D01*
X157146Y287181D01*
X155000Y287608D01*
X152854Y287181D01*
X151035Y285965D01*
X149819Y284146D01*
X149392Y282000D01*
X149819Y279854D01*
X151035Y278035D01*
X152144Y277294D01*
X151775Y276078D01*
X94689D01*
X84728Y286039D01*
Y291204D01*
X85831Y292854D01*
X86258Y295000D01*
Y303500D01*
X85831Y305646D01*
X84615Y307465D01*
X82796Y308681D01*
X80650Y309108D01*
X78504Y308681D01*
X76685Y307465D01*
X75469Y305646D01*
X75042Y303500D01*
Y295000D01*
X75469Y292854D01*
X76572Y291204D01*
Y284350D01*
X76572Y284350D01*
X76831Y283048D01*
X76882Y282789D01*
X77766Y281466D01*
X77766Y281466D01*
X77766Y281466D01*
D01*
X77766D01*
Y281466D01*
D01*
X90116Y269116D01*
X90116Y269116D01*
X91439Y268232D01*
X91439Y268232D01*
X91439Y268232D01*
D01*
X91439Y268232D01*
X91439Y268232D01*
X93000Y267922D01*
X100659D01*
X101257Y266802D01*
X100819Y266146D01*
X100392Y264000D01*
X100819Y261854D01*
X101972Y260129D01*
Y252796D01*
X100869Y251146D01*
X100442Y249000D01*
Y240500D01*
X100869Y238354D01*
X101477Y237444D01*
X100879Y236323D01*
X98521D01*
X97922Y237444D01*
X98531Y238354D01*
X98958Y240500D01*
Y249000D01*
X98531Y251146D01*
X97315Y252965D01*
X95496Y254181D01*
X93350Y254608D01*
X91204Y254181D01*
X89385Y252965D01*
X88169Y251146D01*
X87742Y249000D01*
Y240500D01*
X88169Y238354D01*
X88778Y237444D01*
X88179Y236323D01*
X85821D01*
X85223Y237444D01*
X85831Y238354D01*
X86258Y240500D01*
Y249000D01*
X85831Y251146D01*
X84615Y252965D01*
X82796Y254181D01*
X80650Y254608D01*
X78504Y254181D01*
X76685Y252965D01*
X75469Y251146D01*
X75042Y249000D01*
Y240500D01*
X75469Y238354D01*
X76077Y237444D01*
X75479Y236323D01*
X73121D01*
X72523Y237444D01*
X73131Y238354D01*
X73558Y240500D01*
Y249000D01*
X73131Y251146D01*
X71915Y252965D01*
X70096Y254181D01*
X67950Y254608D01*
X65804Y254181D01*
X63985Y252965D01*
X62769Y251146D01*
X62342Y249000D01*
Y240500D01*
X62769Y238354D01*
X63377Y237444D01*
X62779Y236323D01*
X60421D01*
X59823Y237444D01*
X60431Y238354D01*
X60858Y240500D01*
Y249000D01*
X60431Y251146D01*
X59215Y252965D01*
X57396Y254181D01*
X55250Y254608D01*
X53104Y254181D01*
X51285Y252965D01*
X50069Y251146D01*
X49642Y249000D01*
Y240500D01*
X50069Y238354D01*
X50677Y237444D01*
X50079Y236323D01*
X47769D01*
X47171Y237444D01*
X47769Y238338D01*
X48198Y240500D01*
Y243480D01*
X36902D01*
Y240500D01*
X37331Y238338D01*
X37929Y237444D01*
X37573Y236777D01*
X36317Y236590D01*
X34323Y238584D01*
Y273416D01*
X45254Y284346D01*
X46082Y285587D01*
X46373Y287050D01*
Y290940D01*
X46515Y291035D01*
X47731Y292854D01*
X48158Y295000D01*
Y303500D01*
X47731Y305646D01*
X46515Y307465D01*
X44696Y308681D01*
X42550Y309108D01*
X40404Y308681D01*
X38585Y307465D01*
X37369Y305646D01*
X36942Y303500D01*
Y295000D01*
X37369Y292854D01*
X38585Y291035D01*
X38727Y290940D01*
Y288634D01*
X27796Y277704D01*
X26968Y276463D01*
X26677Y275000D01*
Y237000D01*
X26968Y235537D01*
X27796Y234296D01*
X32296Y229796D01*
X33537Y228968D01*
X35000Y228677D01*
X81900D01*
Y209690D01*
X101900D01*
Y228677D01*
X110609D01*
X111018Y227474D01*
X110168Y226822D01*
X108565Y224733D01*
X107557Y222300D01*
X107214Y219690D01*
X107557Y217080D01*
X108565Y214647D01*
X110168Y212558D01*
X112257Y210955D01*
X114690Y209947D01*
X117300Y209604D01*
X119910Y209947D01*
X122343Y210955D01*
X124432Y212558D01*
X126035Y214647D01*
X127043Y217080D01*
X127386Y219690D01*
X127043Y222300D01*
X126035Y224733D01*
X124432Y226822D01*
X123582Y227474D01*
X123991Y228677D01*
X136009D01*
X136418Y227474D01*
X135568Y226822D01*
X133965Y224733D01*
X132957Y222300D01*
X132614Y219690D01*
X132957Y217080D01*
X133965Y214647D01*
X135568Y212558D01*
X137657Y210955D01*
X140090Y209947D01*
X142700Y209604D01*
X145310Y209947D01*
X147743Y210955D01*
X149832Y212558D01*
X151435Y214647D01*
X152443Y217080D01*
X152786Y219690D01*
X152443Y222300D01*
X152043Y223265D01*
X156699Y227922D01*
X160376D01*
X160938Y226783D01*
X159365Y224733D01*
X158357Y222300D01*
X158014Y219690D01*
X158357Y217080D01*
X159365Y214647D01*
X160968Y212558D01*
X163057Y210955D01*
X164022Y210555D01*
Y206900D01*
X164022Y206900D01*
X164281Y205598D01*
X164332Y205339D01*
X165216Y204016D01*
X165216Y204016D01*
X165216D01*
Y204016D01*
X165216Y204016D01*
X176116Y193116D01*
X177439Y192232D01*
X179000Y191922D01*
X229000D01*
X229000Y191922D01*
X230302Y192181D01*
X230561Y192232D01*
X231884Y193116D01*
X262194Y223426D01*
X262194Y223426D01*
X263078Y224749D01*
X263388Y226310D01*
Y236954D01*
X264491Y238604D01*
X264918Y240750D01*
Y249250D01*
X264491Y251396D01*
X263275Y253215D01*
X261456Y254431D01*
X259310Y254858D01*
X257164Y254431D01*
X255345Y253215D01*
X254129Y251396D01*
X253702Y249250D01*
Y240750D01*
X254129Y238604D01*
X255232Y236954D01*
Y227999D01*
X230022Y202790D01*
X226603Y200505D01*
X226304Y200565D01*
X226019Y201252D01*
X249494Y224726D01*
X250378Y226049D01*
X250688Y227610D01*
X250688Y227610D01*
X250688Y227610D01*
Y227610D01*
Y236954D01*
X251791Y238604D01*
X252218Y240750D01*
Y249250D01*
X251791Y251396D01*
X250575Y253215D01*
X248756Y254431D01*
X246610Y254858D01*
X244464Y254431D01*
X242645Y253215D01*
X241429Y251396D01*
X241002Y249250D01*
Y240750D01*
X241429Y238604D01*
X242532Y236954D01*
Y229299D01*
X240503Y227271D01*
X239383Y227869D01*
X239608Y229000D01*
X239181Y231146D01*
X237988Y232931D01*
Y236954D01*
X239091Y238604D01*
X239518Y240750D01*
Y249250D01*
X239091Y251396D01*
X237875Y253215D01*
X236056Y254431D01*
X233910Y254858D01*
X231764Y254431D01*
X229945Y253215D01*
X228729Y251396D01*
X228302Y249250D01*
Y240750D01*
X228729Y238604D01*
X229832Y236954D01*
Y232661D01*
X228819Y231146D01*
X228392Y229000D01*
X228819Y226854D01*
X230035Y225035D01*
X231854Y223819D01*
X234000Y223392D01*
X235131Y223617D01*
X235729Y222497D01*
X229823Y216591D01*
X229132Y216877D01*
X228647Y217116D01*
X228986Y219690D01*
X228643Y222300D01*
X227635Y224733D01*
X226032Y226822D01*
X223943Y228425D01*
X221511Y229433D01*
X218900Y229776D01*
X216290Y229433D01*
X213857Y228425D01*
X211768Y226822D01*
X210165Y224733D01*
X209157Y222300D01*
X208814Y219690D01*
X209157Y217080D01*
X210165Y214647D01*
X211768Y212558D01*
X213857Y210955D01*
X216290Y209947D01*
X218900Y209604D01*
X221474Y209943D01*
X221713Y209458D01*
X221847Y209134D01*
X221142Y208078D01*
X188796D01*
X187146Y209181D01*
X185000Y209608D01*
X182854Y209181D01*
X181035Y207965D01*
X179819Y206146D01*
X179392Y204000D01*
X179617Y202869D01*
X178497Y202271D01*
X172178Y208589D01*
Y210555D01*
X173143Y210955D01*
X175232Y212558D01*
X176835Y214647D01*
X177843Y217080D01*
X178186Y219690D01*
X177843Y222300D01*
X176835Y224733D01*
X175262Y226783D01*
X175824Y227922D01*
X185776D01*
X186338Y226783D01*
X184765Y224733D01*
X183757Y222300D01*
X183414Y219690D01*
X183757Y217080D01*
X184765Y214647D01*
X186368Y212558D01*
X188457Y210955D01*
X190889Y209947D01*
X193500Y209604D01*
X196110Y209947D01*
X198543Y210955D01*
X200632Y212558D01*
X202235Y214647D01*
X203243Y217080D01*
X203586Y219690D01*
X203243Y222300D01*
X202843Y223265D01*
X211394Y231816D01*
X211394Y231816D01*
X212278Y233139D01*
X212588Y234700D01*
Y236954D01*
X213691Y238604D01*
X214118Y240750D01*
Y249250D01*
X213691Y251396D01*
X212475Y253215D01*
X210656Y254431D01*
X208510Y254858D01*
X206364Y254431D01*
X204545Y253215D01*
X203329Y251396D01*
X202902Y249250D01*
Y240750D01*
X203329Y238604D01*
X204432Y236954D01*
Y236389D01*
X197075Y229033D01*
X196110Y229433D01*
X194962Y229584D01*
X194554Y230786D01*
X198694Y234926D01*
X198694Y234926D01*
X199578Y236249D01*
X199671Y236715D01*
X199775Y236785D01*
X200991Y238604D01*
X201418Y240750D01*
Y249250D01*
X200991Y251396D01*
X199775Y253215D01*
X197956Y254431D01*
X195810Y254858D01*
X193664Y254431D01*
X191845Y253215D01*
X190629Y251396D01*
X190202Y249250D01*
Y240750D01*
X190629Y238604D01*
X190712Y238480D01*
X188861Y236629D01*
X187605Y236815D01*
X187400Y237198D01*
X188329Y238588D01*
X188759Y240750D01*
Y243730D01*
X177461D01*
Y240750D01*
X177891Y238588D01*
X178820Y237198D01*
X178221Y236078D01*
X155010D01*
X155010Y236078D01*
X153449Y235768D01*
X153010Y235475D01*
X152126Y234884D01*
X152126Y234884D01*
X146275Y229033D01*
X145310Y229433D01*
X142783Y229765D01*
X142650Y230159D01*
X142524Y231116D01*
X171084Y259677D01*
X193106D01*
X193535Y259035D01*
X195354Y257819D01*
X197500Y257392D01*
X199646Y257819D01*
X201465Y259035D01*
X202681Y260854D01*
X203108Y263000D01*
X202681Y265146D01*
X201575Y266802D01*
X202173Y267922D01*
X215658D01*
X216257Y266802D01*
X215819Y266146D01*
X215392Y264000D01*
X215819Y261854D01*
X217035Y260035D01*
X217132Y259970D01*
Y253046D01*
X216029Y251396D01*
X215602Y249250D01*
Y240750D01*
X216029Y238604D01*
X217245Y236785D01*
X219064Y235569D01*
X221210Y235142D01*
X223356Y235569D01*
X225175Y236785D01*
X226391Y238604D01*
X226818Y240750D01*
Y249250D01*
X226391Y251396D01*
X225288Y253046D01*
Y260518D01*
X226181Y261854D01*
X226608Y264000D01*
X226181Y266146D01*
X225743Y266802D01*
X226341Y267922D01*
X265972D01*
X266778Y266940D01*
X266392Y265000D01*
X266819Y262854D01*
X267932Y261189D01*
Y253046D01*
X266829Y251396D01*
X266402Y249250D01*
Y240750D01*
X266829Y238604D01*
X268045Y236785D01*
X269864Y235569D01*
X272010Y235142D01*
X274156Y235569D01*
X275975Y236785D01*
X277191Y238604D01*
X277618Y240750D01*
Y249250D01*
X277191Y251396D01*
X276088Y253046D01*
Y261219D01*
X277181Y262854D01*
X277608Y265000D01*
X277222Y266940D01*
X278027Y267922D01*
X292177D01*
Y111944D01*
X278484Y98251D01*
X277268Y98620D01*
X276911Y100416D01*
X276828Y100540D01*
Y113745D01*
X277078Y115000D01*
Y123500D01*
X276651Y125646D01*
X275435Y127465D01*
X273616Y128681D01*
X271470Y129108D01*
X269324Y128681D01*
X267505Y127465D01*
X266289Y125646D01*
X265862Y123500D01*
Y115000D01*
X266289Y112854D01*
X266632Y112341D01*
Y100540D01*
X266549Y100416D01*
X266122Y98270D01*
X266549Y96124D01*
X267765Y94305D01*
X267781Y94294D01*
X267413Y93078D01*
X225505D01*
X225019Y94252D01*
X226884Y96116D01*
X227768Y97439D01*
X227819Y97698D01*
X228078Y99000D01*
X228078Y99000D01*
Y107000D01*
X228078Y107000D01*
X227819Y108302D01*
X227768Y108561D01*
X226884Y109884D01*
X225075Y111693D01*
X225851Y112854D01*
X226278Y115000D01*
Y123500D01*
X225851Y125646D01*
X224635Y127465D01*
X222816Y128681D01*
X220670Y129108D01*
X218524Y128681D01*
X216705Y127465D01*
X215489Y125646D01*
X215062Y123500D01*
Y115000D01*
X215489Y112854D01*
X216356Y111556D01*
X215870Y110383D01*
X214854Y110181D01*
X214730Y110098D01*
X212656D01*
X212058Y111218D01*
X213151Y112854D01*
X213578Y115000D01*
Y123500D01*
X213151Y125646D01*
X212048Y127296D01*
Y134312D01*
X213187Y134873D01*
X215127Y133385D01*
X217560Y132377D01*
X220170Y132034D01*
X222780Y132377D01*
X225213Y133385D01*
X227302Y134988D01*
X228905Y137077D01*
X229913Y139509D01*
X230256Y142120D01*
X229913Y144731D01*
X228905Y147163D01*
X227302Y149252D01*
X225213Y150855D01*
X222780Y151863D01*
X220170Y152206D01*
X217560Y151863D01*
X215127Y150855D01*
X213187Y149367D01*
X212048Y149928D01*
Y155204D01*
X213151Y156854D01*
X213578Y159000D01*
X213151Y161146D01*
X211935Y162965D01*
X212303Y164177D01*
X229416D01*
X242246Y151346D01*
Y127560D01*
X242105Y127465D01*
X240889Y125646D01*
X240462Y123500D01*
Y115000D01*
X240889Y112854D01*
X242105Y111035D01*
X243924Y109819D01*
X246070Y109392D01*
X248216Y109819D01*
X250035Y111035D01*
X251251Y112854D01*
X251678Y115000D01*
Y123500D01*
X251251Y125646D01*
X250035Y127465D01*
X249893Y127560D01*
Y152930D01*
X249602Y154393D01*
X248773Y155634D01*
X233704Y170704D01*
X232463Y171532D01*
X231000Y171823D01*
X46060D01*
X45965Y171965D01*
X44146Y173181D01*
X42000Y173608D01*
X39854Y173181D01*
X38035Y171965D01*
X36819Y170146D01*
X36392Y168000D01*
X36819Y165854D01*
X38035Y164035D01*
X39854Y162819D01*
X42000Y162392D01*
X44146Y162819D01*
X45965Y164035D01*
X46060Y164177D01*
X203637D01*
X204005Y162965D01*
X202789Y161146D01*
X202362Y159000D01*
X202789Y156854D01*
X203892Y155204D01*
Y148635D01*
X202689Y148227D01*
X201902Y149252D01*
X199813Y150855D01*
X197381Y151863D01*
X194770Y152206D01*
X192160Y151863D01*
X189727Y150855D01*
X188237Y149712D01*
X187098Y150274D01*
Y155000D01*
X186710Y156951D01*
X185605Y158605D01*
X183951Y159710D01*
X182000Y160098D01*
X38112D01*
X24098Y174112D01*
Y295888D01*
X48979Y320769D01*
X50152Y320283D01*
Y305770D01*
X50069Y305646D01*
X49642Y303500D01*
Y295000D01*
X50069Y292854D01*
X51285Y291035D01*
X53104Y289819D01*
X55250Y289392D01*
X57396Y289819D01*
X59215Y291035D01*
X60431Y292854D01*
X60858Y295000D01*
Y303500D01*
X60431Y305646D01*
X60348Y305770D01*
Y332138D01*
X64112Y335902D01*
X124478D01*
X125284Y334920D01*
X124902Y333000D01*
Y329397D01*
X123763Y328835D01*
X122343Y329925D01*
X119910Y330933D01*
X117300Y331276D01*
X114690Y330933D01*
X112257Y329925D01*
X110168Y328322D01*
X108565Y326233D01*
X107557Y323801D01*
X107214Y321190D01*
X107557Y318580D01*
X108565Y316147D01*
X110168Y314058D01*
X112257Y312455D01*
X114690Y311447D01*
X117300Y311104D01*
X119910Y311447D01*
X122343Y312455D01*
X123953Y313691D01*
X125142Y313243D01*
X125290Y312499D01*
X126352Y310910D01*
Y305770D01*
X126269Y305646D01*
X125842Y303500D01*
Y295000D01*
X126269Y292854D01*
X127485Y291035D01*
X129304Y289819D01*
X131450Y289392D01*
X133596Y289819D01*
X135415Y291035D01*
X136631Y292854D01*
X137058Y295000D01*
Y303500D01*
X136631Y305646D01*
X136548Y305770D01*
Y311010D01*
X137657Y312455D01*
X140090Y311447D01*
X142700Y311104D01*
X145310Y311447D01*
X146275Y311847D01*
X154922Y303201D01*
Y297796D01*
X153819Y296146D01*
X153392Y294000D01*
X153819Y291854D01*
X155035Y290035D01*
X156854Y288819D01*
X159000Y288392D01*
X161146Y288819D01*
X162965Y290035D01*
X164181Y291854D01*
X164608Y294000D01*
X164181Y296146D01*
X163078Y297796D01*
Y304890D01*
X163078Y304890D01*
X162768Y306451D01*
X162475Y306890D01*
X161884Y307774D01*
X161884Y307774D01*
X152043Y317615D01*
X152443Y318580D01*
X152786Y321190D01*
X152443Y323801D01*
X151435Y326233D01*
X149832Y328322D01*
X147743Y329925D01*
X145310Y330933D01*
X142700Y331276D01*
X140090Y330933D01*
X137657Y329925D01*
X136237Y328835D01*
X135098Y329397D01*
Y330888D01*
X140112Y335902D01*
X201902D01*
Y328643D01*
D02*
G37*
%LPC*%
G36*
X98998Y297980D02*
X94620D01*
Y289604D01*
X95512Y289781D01*
X97344Y291006D01*
X98569Y292838D01*
X98998Y295000D01*
Y297980D01*
D02*
G37*
G36*
X92080Y308896D02*
X91188Y308718D01*
X89356Y307494D01*
X88131Y305662D01*
X87702Y303500D01*
Y300520D01*
X92080D01*
Y308896D01*
D02*
G37*
G36*
Y297980D02*
X87702D01*
Y295000D01*
X88131Y292838D01*
X89356Y291006D01*
X91188Y289781D01*
X92080Y289604D01*
Y297980D01*
D02*
G37*
G36*
X118750Y309108D02*
X116604Y308681D01*
X114785Y307465D01*
X113569Y305646D01*
X113142Y303500D01*
Y295000D01*
X113569Y292854D01*
X114672Y291204D01*
Y286405D01*
X114392Y285000D01*
X114819Y282854D01*
X116035Y281035D01*
X117854Y279819D01*
X120000Y279392D01*
X122146Y279819D01*
X123965Y281035D01*
X125181Y282854D01*
X125608Y285000D01*
X125181Y287146D01*
X123965Y288965D01*
X122828Y289725D01*
Y291204D01*
X123931Y292854D01*
X124358Y295000D01*
Y303500D01*
X123931Y305646D01*
X122715Y307465D01*
X120896Y308681D01*
X118750Y309108D01*
D02*
G37*
G36*
X67950Y317558D02*
X65804Y317131D01*
X63985Y315915D01*
X62769Y314096D01*
X62342Y311950D01*
X62769Y309804D01*
X63872Y308154D01*
Y307296D01*
X62769Y305646D01*
X62342Y303500D01*
Y295000D01*
X62769Y292854D01*
X63985Y291035D01*
X65804Y289819D01*
X67950Y289392D01*
X70096Y289819D01*
X71915Y291035D01*
X73131Y292854D01*
X73558Y295000D01*
Y303500D01*
X73131Y305646D01*
X72028Y307296D01*
Y308154D01*
X73131Y309804D01*
X73558Y311950D01*
X73131Y314096D01*
X71915Y315915D01*
X70096Y317131D01*
X67950Y317558D01*
D02*
G37*
G36*
X429930Y346959D02*
X428579Y346782D01*
X426137Y345770D01*
X424039Y344161D01*
X422430Y342063D01*
X421418Y339621D01*
X421241Y338270D01*
X429930D01*
Y346959D01*
D02*
G37*
G36*
X432470D02*
Y338270D01*
X441159D01*
X440982Y339621D01*
X439970Y342063D01*
X438361Y344161D01*
X436263Y345770D01*
X433821Y346782D01*
X432470Y346959D01*
D02*
G37*
G36*
X168100Y331276D02*
X165490Y330933D01*
X163057Y329925D01*
X160968Y328322D01*
X159365Y326233D01*
X158357Y323801D01*
X158014Y321190D01*
X158357Y318580D01*
X159365Y316147D01*
X160968Y314058D01*
X163057Y312455D01*
X165490Y311447D01*
X168100Y311104D01*
X170711Y311447D01*
X173143Y312455D01*
X175232Y314058D01*
X176835Y316147D01*
X177843Y318580D01*
X178186Y321190D01*
X177843Y323801D01*
X176835Y326233D01*
X175232Y328322D01*
X173143Y329925D01*
X170711Y330933D01*
X168100Y331276D01*
D02*
G37*
G36*
X94620Y308896D02*
Y300520D01*
X98998D01*
Y303500D01*
X98569Y305662D01*
X97344Y307494D01*
X95512Y308718D01*
X94620Y308896D01*
D02*
G37*
G36*
X91900Y331276D02*
X89290Y330933D01*
X86857Y329925D01*
X84768Y328322D01*
X83165Y326233D01*
X82157Y323801D01*
X81814Y321190D01*
X82157Y318580D01*
X83165Y316147D01*
X84768Y314058D01*
X86857Y312455D01*
X89290Y311447D01*
X91900Y311104D01*
X94510Y311447D01*
X96943Y312455D01*
X99032Y314058D01*
X100635Y316147D01*
X101643Y318580D01*
X101986Y321190D01*
X101643Y323801D01*
X100635Y326233D01*
X99032Y328322D01*
X96943Y329925D01*
X94510Y330933D01*
X91900Y331276D01*
D02*
G37*
G36*
X232100Y128896D02*
X231208Y128719D01*
X229376Y127494D01*
X228151Y125662D01*
X227721Y123500D01*
Y120520D01*
X232100D01*
Y128896D01*
D02*
G37*
G36*
X234640D02*
Y120520D01*
X239018D01*
Y123500D01*
X238589Y125662D01*
X237364Y127494D01*
X235532Y128719D01*
X234640Y128896D01*
D02*
G37*
G36*
X239018Y117980D02*
X234640D01*
Y109604D01*
X235532Y109781D01*
X237364Y111006D01*
X238589Y112838D01*
X239018Y115000D01*
Y117980D01*
D02*
G37*
G36*
X258770Y137378D02*
X256624Y136951D01*
X254805Y135735D01*
X253589Y133916D01*
X253162Y131770D01*
X253589Y129624D01*
X254692Y127974D01*
Y127296D01*
X253589Y125646D01*
X253162Y123500D01*
Y115000D01*
X253589Y112854D01*
X254805Y111035D01*
X256624Y109819D01*
X258770Y109392D01*
X260916Y109819D01*
X262735Y111035D01*
X263951Y112854D01*
X264378Y115000D01*
Y123500D01*
X263951Y125646D01*
X262848Y127296D01*
Y127974D01*
X263951Y129624D01*
X264378Y131770D01*
X263951Y133916D01*
X262735Y135735D01*
X260916Y136951D01*
X258770Y137378D01*
D02*
G37*
G36*
X232100Y117980D02*
X227721D01*
Y115000D01*
X228151Y112838D01*
X229376Y111006D01*
X231208Y109781D01*
X232100Y109604D01*
Y117980D01*
D02*
G37*
G36*
X184380Y254646D02*
Y246270D01*
X188759D01*
Y249250D01*
X188329Y251412D01*
X187104Y253244D01*
X185272Y254469D01*
X184380Y254646D01*
D02*
G37*
G36*
X106050Y309108D02*
X103904Y308681D01*
X102085Y307465D01*
X100869Y305646D01*
X100442Y303500D01*
Y295000D01*
X100869Y292854D01*
X101972Y291204D01*
Y288871D01*
X100819Y287146D01*
X100392Y285000D01*
X100819Y282854D01*
X102035Y281035D01*
X103854Y279819D01*
X106000Y279392D01*
X108146Y279819D01*
X109965Y281035D01*
X111181Y282854D01*
X111608Y285000D01*
X111181Y287146D01*
X110128Y288721D01*
Y291204D01*
X111231Y292854D01*
X111658Y295000D01*
Y303500D01*
X111231Y305646D01*
X110015Y307465D01*
X108196Y308681D01*
X106050Y309108D01*
D02*
G37*
G36*
X181840Y254646D02*
X180948Y254469D01*
X179116Y253244D01*
X177891Y251412D01*
X177461Y249250D01*
Y246270D01*
X181840D01*
Y254646D01*
D02*
G37*
G36*
X41280Y254396D02*
X40388Y254219D01*
X38556Y252994D01*
X37331Y251162D01*
X36902Y249000D01*
Y246020D01*
X41280D01*
Y254396D01*
D02*
G37*
G36*
X43820D02*
Y246020D01*
X48198D01*
Y249000D01*
X47769Y251162D01*
X46544Y252994D01*
X44712Y254219D01*
X43820Y254396D01*
D02*
G37*
%LPD*%
D10*
X531560Y163250D02*
D03*
X547560D02*
D03*
X531560Y191250D02*
D03*
X547560D02*
D03*
X453000Y305000D02*
D03*
X437000D02*
D03*
X356560Y182250D02*
D03*
X372560D02*
D03*
D16*
X458500Y88000D02*
Y96500D01*
X463000Y101000D01*
X475000D01*
X92000Y100500D02*
X99000D01*
X105610Y107110D01*
Y119500D01*
X155000Y282000D02*
X180000D01*
X183110Y285110D01*
Y299500D01*
X42110Y119500D02*
Y140390D01*
X42000Y168000D02*
X231000D01*
X246070Y152930D01*
Y119250D02*
Y152930D01*
X196000Y263500D02*
X197500Y262000D01*
X169500Y263500D02*
X196000D01*
X197500Y262000D02*
Y263000D01*
X138500Y232500D02*
X169500Y263500D01*
X35000Y232500D02*
X138500D01*
X30500Y237000D02*
X35000Y232500D01*
X30500Y237000D02*
Y275000D01*
X42550Y287050D01*
Y299250D01*
X324500Y326000D02*
X340000D01*
X420050Y287000D02*
X423060Y283990D01*
X411000Y287000D02*
X420050D01*
X407000Y283000D02*
X411000Y287000D01*
X296000Y307000D02*
X307000Y318000D01*
X296000Y110000D02*
Y307000D01*
X307000Y318000D02*
X329000D01*
X359250Y246750D02*
X399310D01*
X349000Y257000D02*
X359250Y246750D01*
X349000Y257000D02*
Y317000D01*
X354250Y241750D02*
X399310D01*
X340000Y256000D02*
X354250Y241750D01*
X340000Y256000D02*
Y307000D01*
X329000Y318000D02*
X340000Y307000D01*
X458060Y256940D02*
X461000Y254000D01*
X458060Y256940D02*
Y275500D01*
X459000Y290000D02*
X464000D01*
X453060Y284060D02*
X459000Y290000D01*
X453060Y275500D02*
Y284060D01*
X463060Y266940D02*
Y275500D01*
Y266940D02*
X465060Y264940D01*
X471940D01*
X488000Y281000D02*
Y302000D01*
X471940Y264940D02*
X488000Y281000D01*
X438060Y265940D02*
X445000Y259000D01*
X438060Y265940D02*
Y275500D01*
X426000Y259000D02*
X433060Y266060D01*
Y275500D01*
X404000Y291000D02*
X405500Y292500D01*
X422500D01*
X428060Y275500D02*
Y286940D01*
X422500Y292500D02*
X428060Y286940D01*
X423060Y275500D02*
Y283990D01*
X398750Y283000D02*
X407000D01*
X385000Y289000D02*
X392750D01*
X398750Y283000D01*
X453000Y291000D02*
Y305000D01*
X448060Y286060D02*
X453000Y291000D01*
X448060Y275500D02*
Y286060D01*
X437000Y294000D02*
Y305000D01*
Y294000D02*
X443060Y287940D01*
Y275500D02*
Y287940D01*
X370000Y263000D02*
X375000D01*
X361000Y268000D02*
X367000Y274000D01*
X361000Y268000D02*
Y269000D01*
X367250Y251750D02*
X399310D01*
X354000Y265000D02*
X367250Y251750D01*
X339000Y335000D02*
X354000Y320000D01*
Y265000D02*
Y320000D01*
X340000Y326000D02*
X349000Y317000D01*
X375000Y263000D02*
X381250Y256750D01*
X399310D01*
X367000Y274000D02*
X373000D01*
X385250Y261750D01*
X399310D01*
X359000Y227000D02*
X380000D01*
X460000Y151250D02*
Y163000D01*
X443060Y179940D02*
X460000Y163000D01*
X443060Y179940D02*
Y193000D01*
X438060Y178000D02*
Y193000D01*
X438000Y178000D02*
X438060D01*
X430000Y170000D02*
X438000Y178000D01*
X430000Y162000D02*
Y170000D01*
X402250Y162440D02*
Y172250D01*
X406250Y176250D01*
X430250D01*
X433060Y179060D01*
Y193000D01*
X458060Y180940D02*
X481000Y158000D01*
Y134000D02*
Y158000D01*
Y134000D02*
X483500Y131500D01*
X491000D01*
X491000Y117000D02*
Y131500D01*
X491000Y131500D02*
X491000Y131500D01*
X475000Y101000D02*
X491000Y117000D01*
X509000Y163250D02*
X531560D01*
X509000Y164500D02*
Y172000D01*
Y163250D02*
Y164500D01*
X506000Y175000D02*
X509000Y172000D01*
X501750Y236750D02*
X502000Y237000D01*
X481810Y236750D02*
X501750D01*
X458060Y180940D02*
Y193000D01*
X470000Y175000D02*
X506000D01*
X463060Y181940D02*
X470000Y175000D01*
X463060Y181940D02*
Y193000D01*
X511250Y191250D02*
X531560D01*
X500000Y180000D02*
X511250Y191250D01*
X471000Y180000D02*
X500000D01*
X468060Y182940D02*
X471000Y180000D01*
X468060Y182940D02*
Y193000D01*
X334000Y202000D02*
X359000Y227000D01*
X334000Y175000D02*
Y202000D01*
Y175000D02*
X341000Y168000D01*
X353000D01*
X356560Y171560D01*
Y182250D01*
X362750Y206750D02*
X399310D01*
X356560Y200560D02*
X362750Y206750D01*
X356560Y182250D02*
Y200560D01*
D17*
X442500Y139593D02*
Y162440D01*
X438657Y135750D02*
X442500Y139593D01*
X433750Y135750D02*
X438657D01*
X424000Y126000D02*
X433750Y135750D01*
X402250Y162440D02*
X442500D01*
X131450Y299250D02*
Y313000D01*
X130000Y314450D02*
X131450Y313000D01*
X130000Y314450D02*
Y333000D01*
X138000Y341000D01*
X404000Y356000D02*
X475000D01*
X334000D02*
X404000D01*
X453000Y305000D02*
Y318000D01*
X450000Y321000D02*
X453000Y318000D01*
X416000Y321000D02*
X450000D01*
X404000Y333000D02*
X416000Y321000D01*
X404000Y333000D02*
Y356000D01*
X456875Y49875D02*
X468000Y61000D01*
X445750Y38750D02*
X456875Y49875D01*
X590000Y49000D02*
Y75000D01*
X579000Y38000D02*
X590000Y49000D01*
X559000Y38000D02*
X579000D01*
X550000Y29000D02*
X559000Y38000D01*
X507000Y29000D02*
X550000D01*
X499000Y37000D02*
X507000Y29000D01*
X469750Y37000D02*
X499000D01*
X456875Y49875D02*
X469750Y37000D01*
X389000Y175000D02*
X397000Y183000D01*
X389000Y166000D02*
Y175000D01*
Y166000D02*
X392560Y162440D01*
X402250D01*
X424000Y118000D02*
Y126000D01*
Y115120D02*
X436560Y102560D01*
X424000Y115120D02*
Y118000D01*
X436560Y54560D02*
Y102560D01*
X423000Y41000D02*
X436560Y54560D01*
X423000Y25000D02*
Y41000D01*
Y25000D02*
X427000Y21000D01*
X445750D01*
Y38750D01*
X468000Y61000D02*
X486000D01*
X500000D01*
X503000Y58000D01*
Y48000D02*
Y58000D01*
Y48000D02*
X514000Y37000D01*
X537000D01*
X543560Y43560D01*
Y61000D01*
X520000Y61560D02*
Y86000D01*
X548000Y242000D02*
Y269800D01*
X506000Y302000D02*
Y317000D01*
Y286000D02*
Y302000D01*
X522200Y269800D02*
X548000D01*
X506000Y286000D02*
X522200Y269800D01*
X500000Y323000D02*
X506000Y317000D01*
X485000Y323000D02*
X500000D01*
X482000Y326000D02*
X485000Y323000D01*
X482000Y326000D02*
Y337000D01*
X317000Y356000D02*
X334000D01*
X195270Y111730D02*
X202000Y105000D01*
X195270Y111730D02*
Y119250D01*
X202000Y105000D02*
X217000D01*
X271730Y98270D02*
Y118990D01*
X36000Y155000D02*
X182000D01*
Y134000D02*
Y155000D01*
Y134000D02*
X184000Y132000D01*
X189000D01*
X195270Y125730D01*
Y119250D02*
Y125730D01*
X131010Y119500D02*
Y154990D01*
X54810Y119500D02*
Y154810D01*
X19000Y172000D02*
X36000Y155000D01*
X19000Y172000D02*
Y298000D01*
X55250Y334250D01*
X138000Y341000D02*
X207000D01*
X482000Y337000D02*
Y349000D01*
X475000Y356000D02*
X482000Y349000D01*
X302000Y341000D02*
X317000Y356000D01*
X207000Y341000D02*
X302000D01*
X202000Y310000D02*
X207000Y315000D01*
X198000Y310000D02*
X202000D01*
X195810Y307810D02*
X198000Y310000D01*
X195810Y299500D02*
Y307810D01*
X207000Y315000D02*
Y341000D01*
X272010Y299500D02*
Y340990D01*
X55250Y299250D02*
Y334250D01*
X62000Y341000D01*
X138000D01*
D18*
X86000Y89000D02*
X275000D01*
X80210Y94790D02*
X86000Y89000D01*
X80210Y94790D02*
Y119500D01*
X93000Y272000D02*
X296000D01*
X80650Y284350D02*
X93000Y272000D01*
X224000Y99000D02*
Y107000D01*
X220670Y95670D02*
X224000Y99000D01*
X220670Y89000D02*
Y95670D01*
Y110330D02*
X224000Y107000D01*
X220670Y110330D02*
Y119250D01*
X275000Y89000D02*
X296000Y110000D01*
X530000Y260000D02*
X530000Y260000D01*
X530000Y242000D02*
Y260000D01*
Y192810D02*
Y242000D01*
X488000Y302000D02*
Y314000D01*
X485000Y317000D02*
X488000Y314000D01*
X476600Y317000D02*
X485000D01*
X456600Y337000D02*
X476600Y317000D01*
X231000Y11000D02*
X258770Y38770D01*
X181000Y11000D02*
X231000D01*
X169370Y22630D02*
X181000Y11000D01*
X118000Y101000D02*
Y119190D01*
X105000Y79000D02*
X105610Y78390D01*
Y65000D02*
Y78390D01*
X118310Y65000D02*
Y81690D01*
X131010Y65000D02*
Y81990D01*
X207970Y119250D02*
Y159000D01*
X220000Y65420D02*
Y81000D01*
X271470Y45530D02*
Y64750D01*
X228000Y53000D02*
X232000D01*
X233370Y54370D01*
Y64750D01*
X143970Y40620D02*
X156350Y53000D01*
X192000D01*
X195270Y56270D01*
Y64750D01*
X194770Y40620D02*
X207970Y53820D01*
Y64750D01*
X190000Y18000D02*
X216000D01*
X246070Y48070D01*
Y64750D01*
X169370Y22630D02*
Y40620D01*
X258770Y38770D02*
Y64750D01*
Y119250D02*
Y131770D01*
X67510Y119500D02*
Y137490D01*
X208510Y299500D02*
Y306510D01*
X212000Y310000D01*
X225000D01*
X236000Y321000D01*
Y331000D01*
X67950Y299250D02*
Y311950D01*
X246610Y284390D02*
Y299500D01*
X80650Y284350D02*
Y299250D01*
X221210Y272000D02*
Y299500D01*
X106050Y285050D02*
Y299250D01*
X259310Y299500D02*
Y314690D01*
X106050Y244750D02*
Y263950D01*
X118750Y244750D02*
Y262750D01*
X131450Y244750D02*
Y263550D01*
X118750Y285750D02*
Y299250D01*
X259310Y226310D02*
Y245000D01*
X208510Y234700D02*
Y245000D01*
X193500Y219690D02*
X208510Y234700D01*
X195810Y237810D02*
Y245000D01*
X190000Y232000D02*
X195810Y237810D01*
X155010Y232000D02*
X190000D01*
X142700Y219690D02*
X155010Y232000D01*
X246610Y227610D02*
Y245000D01*
X223000Y204000D02*
X246610Y227610D01*
X185000Y204000D02*
X223000D01*
X233910Y229090D02*
Y245000D01*
Y229090D02*
X234000Y229000D01*
X142700Y321190D02*
X159000Y304890D01*
Y294000D02*
Y304890D01*
X221210Y245000D02*
Y263790D01*
X272010Y245000D02*
Y264990D01*
X168100Y206900D02*
Y219690D01*
Y206900D02*
X179000Y196000D01*
X229000D01*
X259310Y226310D01*
X316000Y335000D02*
X339000D01*
D21*
X607000Y0D02*
Y364550D01*
X0Y0D02*
X607000D01*
X0D02*
Y363800D01*
X50Y364550D02*
X607000D01*
D22*
X482000Y337000D02*
D03*
X565000Y13000D02*
D03*
X93170Y40620D02*
D03*
X91900Y219690D02*
D03*
D23*
X456600Y337000D02*
D03*
X431200D02*
D03*
X548000Y269800D02*
D03*
Y295200D02*
D03*
Y320600D02*
D03*
X590400Y13000D02*
D03*
X220170Y142120D02*
D03*
X194770D02*
D03*
X169370D02*
D03*
X143970D02*
D03*
X118570D02*
D03*
X93170D02*
D03*
X220170Y40620D02*
D03*
X194770D02*
D03*
X169370D02*
D03*
X143970D02*
D03*
X118570D02*
D03*
X218900Y321190D02*
D03*
X193500D02*
D03*
X168100D02*
D03*
X142700D02*
D03*
X117300D02*
D03*
X91900D02*
D03*
X218900Y219690D02*
D03*
X193500D02*
D03*
X168100D02*
D03*
X142700D02*
D03*
X117300D02*
D03*
D24*
X548000Y346000D02*
D03*
D25*
X365560Y46250D02*
D03*
X340160Y20850D02*
D03*
Y71650D02*
D03*
X390960D02*
D03*
Y20850D02*
D03*
D26*
X92000Y100500D02*
D03*
X155000Y282000D02*
D03*
X42110Y140390D02*
D03*
X42000Y168000D02*
D03*
X246610Y284390D02*
D03*
X197500Y263000D02*
D03*
X120000Y285000D02*
D03*
X106000D02*
D03*
X324500Y326000D02*
D03*
X568000Y149000D02*
D03*
X555000Y92000D02*
D03*
X315000Y187000D02*
D03*
X317000Y273000D02*
D03*
X364000Y336000D02*
D03*
X436000Y233000D02*
D03*
X9000Y99000D02*
D03*
X6270Y203270D02*
D03*
Y277270D02*
D03*
X8000Y357000D02*
D03*
X107730Y357730D02*
D03*
X181730D02*
D03*
X265270Y358730D02*
D03*
X514000Y358000D02*
D03*
X600000Y197000D02*
D03*
Y149000D02*
D03*
X601000Y91000D02*
D03*
X533000Y6000D02*
D03*
X459000Y4000D02*
D03*
X366000Y6000D02*
D03*
X258000D02*
D03*
X162000D02*
D03*
X87000D02*
D03*
X7000D02*
D03*
X601000Y231000D02*
D03*
Y300000D02*
D03*
X598256Y355838D02*
D03*
X267000Y164000D02*
D03*
X145000Y61000D02*
D03*
X411000Y71000D02*
D03*
X412000Y18000D02*
D03*
X315000Y19000D02*
D03*
X316000Y72000D02*
D03*
X384000Y94000D02*
D03*
Y114000D02*
D03*
Y130000D02*
D03*
X346000Y94000D02*
D03*
Y113000D02*
D03*
Y130000D02*
D03*
X461000Y254000D02*
D03*
X464000Y290000D02*
D03*
X445000Y259000D02*
D03*
X426000D02*
D03*
X404000Y291000D02*
D03*
X385000Y289000D02*
D03*
X590000Y75000D02*
D03*
X370000Y263000D02*
D03*
X361000Y269000D02*
D03*
X380000Y227000D02*
D03*
X424000Y118000D02*
D03*
X397000Y183000D02*
D03*
X520000Y86000D02*
D03*
X502000Y237000D02*
D03*
X530000Y260000D02*
D03*
X334000Y356000D02*
D03*
X217000Y105000D02*
D03*
X118000Y101000D02*
D03*
X105000Y79000D02*
D03*
X118000Y82000D02*
D03*
X131000D02*
D03*
X207970Y159000D02*
D03*
X220000Y81000D02*
D03*
X272000Y45000D02*
D03*
X228000Y53000D02*
D03*
X190000Y18000D02*
D03*
X258770Y131770D02*
D03*
X271730Y98270D02*
D03*
X67000Y138000D02*
D03*
X67950Y311950D02*
D03*
X236000Y331000D02*
D03*
X259000Y315000D02*
D03*
X106000Y264000D02*
D03*
X119000Y263000D02*
D03*
X131000Y264000D02*
D03*
X185000Y204000D02*
D03*
X234000Y229000D02*
D03*
X159000Y294000D02*
D03*
X221000Y264000D02*
D03*
X272000Y265000D02*
D03*
X316000Y335000D02*
D03*
D27*
X266000Y206000D02*
D03*
D28*
X460000Y120750D02*
D03*
Y151250D02*
D03*
D29*
X476250Y21000D02*
D03*
X445750D02*
D03*
D30*
X486000Y61000D02*
D03*
Y77000D02*
D03*
X458500Y88000D02*
D03*
Y72000D02*
D03*
X402250Y162440D02*
D03*
Y146440D02*
D03*
X430000Y162000D02*
D03*
Y146000D02*
D03*
D31*
X506000Y302000D02*
D03*
X488000D02*
D03*
X530000Y242000D02*
D03*
X548000D02*
D03*
D32*
X491000Y164500D02*
D03*
Y131500D02*
D03*
X509000D02*
D03*
Y164500D02*
D03*
D33*
X566560Y61000D02*
D03*
X543560D02*
D03*
X520560D02*
D03*
D34*
X543560Y119500D02*
D03*
D35*
X468060Y193000D02*
D03*
X463060D02*
D03*
X458060D02*
D03*
X453060D02*
D03*
X448060D02*
D03*
X443060D02*
D03*
X438060D02*
D03*
X433060D02*
D03*
X428060D02*
D03*
X423060D02*
D03*
X418060D02*
D03*
X413060D02*
D03*
Y275500D02*
D03*
X418060D02*
D03*
X423060D02*
D03*
X428060D02*
D03*
X433060D02*
D03*
X438060D02*
D03*
X443060D02*
D03*
X448060D02*
D03*
X453060D02*
D03*
X458060D02*
D03*
X463060D02*
D03*
X468060D02*
D03*
D36*
X399310Y206750D02*
D03*
Y211750D02*
D03*
Y216750D02*
D03*
Y221750D02*
D03*
Y226750D02*
D03*
Y231750D02*
D03*
Y236750D02*
D03*
Y241750D02*
D03*
Y246750D02*
D03*
Y251750D02*
D03*
Y256750D02*
D03*
Y261750D02*
D03*
X481810D02*
D03*
Y256750D02*
D03*
Y251750D02*
D03*
Y246750D02*
D03*
Y241750D02*
D03*
Y236750D02*
D03*
Y231750D02*
D03*
Y226750D02*
D03*
Y221750D02*
D03*
Y216750D02*
D03*
Y211750D02*
D03*
Y206750D02*
D03*
D37*
X42550Y299250D02*
D03*
X55250D02*
D03*
X67950D02*
D03*
X80650D02*
D03*
X93350D02*
D03*
X106050D02*
D03*
X118750D02*
D03*
X131450D02*
D03*
X42550Y244750D02*
D03*
X55250D02*
D03*
X67950D02*
D03*
X80650D02*
D03*
X93350D02*
D03*
X106050D02*
D03*
X118750D02*
D03*
X131450D02*
D03*
X183110Y299500D02*
D03*
X195810D02*
D03*
X208510D02*
D03*
X221210D02*
D03*
X233910D02*
D03*
X246610D02*
D03*
X259310D02*
D03*
X272010D02*
D03*
X183110Y245000D02*
D03*
X195810D02*
D03*
X208510D02*
D03*
X221210D02*
D03*
X233910D02*
D03*
X246610D02*
D03*
X259310D02*
D03*
X272010D02*
D03*
X182570Y119250D02*
D03*
X195270D02*
D03*
X207970D02*
D03*
X220670D02*
D03*
X233370D02*
D03*
X246070D02*
D03*
X258770D02*
D03*
X271470D02*
D03*
X182570Y64750D02*
D03*
X195270D02*
D03*
X207970D02*
D03*
X220670D02*
D03*
X233370D02*
D03*
X246070D02*
D03*
X258770D02*
D03*
X271470D02*
D03*
X42110Y119500D02*
D03*
X54810D02*
D03*
X67510D02*
D03*
X80210D02*
D03*
X92910D02*
D03*
X105610D02*
D03*
X118310D02*
D03*
X131010D02*
D03*
X42110Y65000D02*
D03*
X54810D02*
D03*
X67510D02*
D03*
X80210D02*
D03*
X92910D02*
D03*
X105610D02*
D03*
X118310D02*
D03*
X131010D02*
D03*
M02*
