%FSLAX44Y44*%
%MOMM*%
G71*
G01*
G75*
G04 Layer_Color=8388736*
%ADD10R,1.2500X1.4000*%
%ADD11R,1.6000X2.1000*%
%ADD12R,1.3500X1.0000*%
%ADD13R,1.2000X1.2000*%
%ADD14R,1.2000X1.2000*%
%ADD15R,1.5000X2.0000*%
%ADD16C,0.2500*%
%ADD17C,0.5000*%
%ADD18C,0.3000*%
%ADD19C,1.0000*%
%ADD20C,1.5000*%
%ADD21C,0.2540*%
%ADD22R,1.5000X1.5000*%
%ADD23C,1.5000*%
%ADD24R,1.5000X1.5000*%
%ADD25C,2.2000*%
%ADD26C,0.6000*%
%ADD27C,0.7000*%
%ADD28R,1.8000X1.7000*%
%ADD29R,1.7000X1.8000*%
%ADD30R,1.4000X1.2500*%
%ADD31R,1.0000X1.3500*%
%ADD32R,1.1000X1.3000*%
%ADD33R,0.9000X2.1500*%
%ADD34R,3.2500X2.1500*%
%ADD35O,0.2500X1.2500*%
%ADD36O,1.2500X0.2500*%
%ADD37O,0.6000X1.4500*%
%ADD38R,1.4532X1.6032*%
%ADD39R,1.8032X2.3032*%
%ADD40R,1.5532X1.2032*%
%ADD41R,1.4032X1.4032*%
%ADD42R,1.4032X1.4032*%
%ADD43R,1.7032X2.2032*%
%ADD44R,1.7032X1.7032*%
%ADD45C,1.7032*%
%ADD46R,1.7032X1.7032*%
%ADD47C,2.4032*%
%ADD48C,0.8032*%
%ADD49C,0.9032*%
D21*
X607000Y0D02*
Y364550D01*
X0Y0D02*
X607000D01*
X0D02*
Y363800D01*
X50Y364550D02*
X607000D01*
D38*
X531560Y59250D02*
D03*
X547560D02*
D03*
X445000Y117000D02*
D03*
X461000D02*
D03*
D39*
X583000Y221000D02*
D03*
Y313000D02*
D03*
D40*
X457000Y49000D02*
D03*
Y67000D02*
D03*
X492000Y49000D02*
D03*
Y67000D02*
D03*
X589000Y95000D02*
D03*
Y113000D02*
D03*
D41*
X457500Y17000D02*
D03*
X436500D02*
D03*
X492500Y18000D02*
D03*
X513500D02*
D03*
D42*
X589000Y146500D02*
D03*
Y167500D02*
D03*
D43*
X465000Y309000D02*
D03*
Y149000D02*
D03*
X485000Y309000D02*
D03*
Y149000D02*
D03*
X505000Y309000D02*
D03*
Y149000D02*
D03*
X445000D02*
D03*
Y309000D02*
D03*
X425000Y149000D02*
D03*
Y309000D02*
D03*
X405000Y149000D02*
D03*
Y309000D02*
D03*
X385000Y149000D02*
D03*
Y309000D02*
D03*
X365000D02*
D03*
Y149000D02*
D03*
D44*
X482000Y337000D02*
D03*
X565000Y13000D02*
D03*
X93170Y40620D02*
D03*
X91900Y219690D02*
D03*
D45*
X456600Y337000D02*
D03*
X431200D02*
D03*
X548000Y269800D02*
D03*
Y295200D02*
D03*
Y320600D02*
D03*
X590400Y13000D02*
D03*
X220170Y142120D02*
D03*
X194770D02*
D03*
X169370D02*
D03*
X143970D02*
D03*
X118570D02*
D03*
X93170D02*
D03*
X220170Y40620D02*
D03*
X194770D02*
D03*
X169370D02*
D03*
X143970D02*
D03*
X118570D02*
D03*
X218900Y321190D02*
D03*
X193500D02*
D03*
X168100D02*
D03*
X142700D02*
D03*
X117300D02*
D03*
X91900D02*
D03*
X218900Y219690D02*
D03*
X193500D02*
D03*
X168100D02*
D03*
X142700D02*
D03*
X117300D02*
D03*
D46*
X548000Y346000D02*
D03*
D47*
X365560Y46250D02*
D03*
X340160Y20850D02*
D03*
Y71650D02*
D03*
X390960D02*
D03*
Y20850D02*
D03*
D48*
X92000Y100500D02*
D03*
X155000Y282000D02*
D03*
X42110Y140390D02*
D03*
X42000Y168000D02*
D03*
X246610Y284390D02*
D03*
X197500Y263000D02*
D03*
X120000Y285000D02*
D03*
X106000D02*
D03*
X324500Y326000D02*
D03*
X568000Y149000D02*
D03*
X555000Y92000D02*
D03*
X315000Y187000D02*
D03*
X317000Y273000D02*
D03*
X364000Y336000D02*
D03*
X436000Y233000D02*
D03*
X9000Y99000D02*
D03*
X6270Y203270D02*
D03*
Y277270D02*
D03*
X107730Y357730D02*
D03*
X181730D02*
D03*
X265270Y358730D02*
D03*
X514000Y358000D02*
D03*
X600000Y197000D02*
D03*
Y149000D02*
D03*
X601000Y91000D02*
D03*
X533000Y6000D02*
D03*
X459000Y4000D02*
D03*
X366000Y6000D02*
D03*
X258000D02*
D03*
X162000D02*
D03*
X87000D02*
D03*
X7000D02*
D03*
X601000Y231000D02*
D03*
Y300000D02*
D03*
X598256Y355838D02*
D03*
X267000Y164000D02*
D03*
X145000Y61000D02*
D03*
X411000Y71000D02*
D03*
X412000Y18000D02*
D03*
X315000Y19000D02*
D03*
X316000Y72000D02*
D03*
X384000Y94000D02*
D03*
Y114000D02*
D03*
Y130000D02*
D03*
X346000Y94000D02*
D03*
Y113000D02*
D03*
Y130000D02*
D03*
X461000Y254000D02*
D03*
X464000Y290000D02*
D03*
X445000Y259000D02*
D03*
X426000D02*
D03*
X404000Y291000D02*
D03*
X385000Y289000D02*
D03*
X590000Y75000D02*
D03*
X370000Y263000D02*
D03*
X361000Y269000D02*
D03*
X380000Y227000D02*
D03*
X424000Y118000D02*
D03*
X397000Y183000D02*
D03*
X520000Y86000D02*
D03*
X502000Y237000D02*
D03*
X530000Y260000D02*
D03*
X334000Y356000D02*
D03*
X217000Y105000D02*
D03*
X118000Y101000D02*
D03*
X105000Y79000D02*
D03*
X118000Y82000D02*
D03*
X131000D02*
D03*
X207970Y159000D02*
D03*
X220000Y81000D02*
D03*
X272000Y45000D02*
D03*
X228000Y53000D02*
D03*
X190000Y18000D02*
D03*
X258770Y131770D02*
D03*
X271730Y98270D02*
D03*
X67000Y138000D02*
D03*
X67950Y311950D02*
D03*
X236000Y331000D02*
D03*
X259000Y315000D02*
D03*
X106000Y264000D02*
D03*
X119000Y263000D02*
D03*
X131000Y264000D02*
D03*
X185000Y204000D02*
D03*
X234000Y229000D02*
D03*
X159000Y294000D02*
D03*
X221000Y264000D02*
D03*
X272000Y265000D02*
D03*
X316000Y335000D02*
D03*
D49*
X266000Y206000D02*
D03*
M02*
