%FSLAX44Y44*%
%MOMM*%
G71*
G01*
G75*
G04 Layer_Color=2752767*
%ADD10R,1.2500X1.4000*%
%ADD11R,1.6000X2.1000*%
%ADD12R,1.3500X1.0000*%
%ADD13R,1.2000X1.2000*%
%ADD14R,1.2000X1.2000*%
%ADD15R,1.5000X2.0000*%
%ADD16C,0.2500*%
%ADD17C,0.5000*%
%ADD18C,0.3000*%
%ADD19C,1.0000*%
%ADD20C,1.5000*%
%ADD21C,0.2540*%
%ADD22R,1.5000X1.5000*%
%ADD23C,1.5000*%
%ADD24R,1.5000X1.5000*%
%ADD25C,2.2000*%
%ADD26C,0.6000*%
%ADD27C,0.7000*%
%ADD28R,1.8000X1.7000*%
%ADD29R,1.7000X1.8000*%
%ADD30R,1.4000X1.2500*%
%ADD31R,1.0000X1.3500*%
%ADD32R,1.1000X1.3000*%
%ADD33R,0.9000X2.1500*%
%ADD34R,3.2500X2.1500*%
%ADD35O,0.2500X1.2500*%
%ADD36O,1.2500X0.2500*%
%ADD37O,0.6000X1.4500*%
%ADD38R,1.4532X1.6032*%
%ADD39R,1.8032X2.3032*%
%ADD40R,1.5532X1.2032*%
%ADD41R,1.4032X1.4032*%
%ADD42R,1.4032X1.4032*%
%ADD43R,1.7032X2.2032*%
%ADD44R,1.7032X1.7032*%
%ADD45C,1.7032*%
%ADD46R,1.7032X1.7032*%
%ADD47C,2.4032*%
%ADD48C,0.8032*%
%ADD49C,0.9032*%
%ADD50R,2.0032X1.9032*%
%ADD51R,1.9032X2.0032*%
%ADD52R,1.6032X1.4532*%
%ADD53R,1.2032X1.5532*%
%ADD54R,1.3032X1.5032*%
%ADD55R,1.1032X2.3532*%
%ADD56R,3.4532X2.3532*%
%ADD57O,0.4532X1.4532*%
%ADD58O,1.4532X0.4532*%
%ADD59O,0.8032X1.6532*%
%ADD60C,0.1270*%
%ADD61C,0.1693*%
D21*
X607000Y0D02*
Y364550D01*
X0Y0D02*
X607000D01*
X0D02*
Y363800D01*
X50Y364550D02*
X607000D01*
D60*
X476920Y331920D02*
Y342080D01*
X487080D01*
Y331920D01*
X476920D01*
X451520D02*
Y342080D01*
X461680D01*
Y331920D01*
X451520D01*
X426120D02*
Y342080D01*
X436280D01*
Y331920D01*
X426120D01*
X542920Y264720D02*
Y274880D01*
X553080D01*
Y264720D01*
X542920D01*
Y290120D02*
Y300280D01*
X553080D01*
Y290120D01*
X542920D01*
Y315520D02*
Y325680D01*
X553080D01*
Y315520D01*
X542920D01*
Y340920D02*
Y351080D01*
X553080D01*
Y340920D01*
X542920D01*
X559920Y7920D02*
Y18080D01*
X570080D01*
Y7920D01*
X559920D01*
X585320D02*
Y18080D01*
X595480D01*
Y7920D01*
X585320D01*
X365560Y41170D02*
X360480Y51330D01*
X370640D01*
X365560Y41170D01*
X340160Y15770D02*
X342700Y18310D01*
X345240D01*
X342700Y20850D01*
X345240Y23390D01*
X342700D01*
X340160Y25930D01*
X337620Y23390D01*
X335080D01*
X337620Y20850D01*
X335080Y18310D01*
X337620D01*
X340160Y15770D01*
Y66570D02*
X342700Y69110D01*
X345240D01*
X342700Y71650D01*
X345240Y74190D01*
X342700D01*
X340160Y76730D01*
X337620Y74190D01*
X335080D01*
X337620Y71650D01*
X335080Y69110D01*
X337620D01*
X340160Y66570D01*
X390960D02*
X393500Y69110D01*
X396040D01*
X393500Y71650D01*
X396040Y74190D01*
X393500D01*
X390960Y76730D01*
X388420Y74190D01*
X385880D01*
X388420Y71650D01*
X385880Y69110D01*
X388420D01*
X390960Y66570D01*
Y15770D02*
X393500Y18310D01*
X396040D01*
X393500Y20850D01*
X396040Y23390D01*
X393500D01*
X390960Y25930D01*
X388420Y23390D01*
X385880D01*
X388420Y20850D01*
X385880Y18310D01*
X388420D01*
X390960Y15770D01*
X86920Y95420D02*
X89460Y100500D01*
X86920Y105580D01*
X92000Y103040D01*
X97080Y105580D01*
X94540Y100500D01*
X97080Y95420D01*
X92000Y97960D01*
X86920Y95420D01*
X149920Y276920D02*
X152460Y282000D01*
X149920Y287080D01*
X155000Y284540D01*
X160080Y287080D01*
X157540Y282000D01*
X160080Y276920D01*
X155000Y279460D01*
X149920Y276920D01*
X37030Y135310D02*
X39570Y140390D01*
X37030Y145470D01*
X42110Y142930D01*
X47190Y145470D01*
X44650Y140390D01*
X47190Y135310D01*
X42110Y137850D01*
X37030Y135310D01*
X36920Y162920D02*
X39460Y168000D01*
X36920Y173080D01*
X42000Y170540D01*
X47080Y173080D01*
X44540Y168000D01*
X47080Y162920D01*
X42000Y165460D01*
X36920Y162920D01*
X241530Y279310D02*
X244070Y284390D01*
X241530Y289470D01*
X246610Y286930D01*
X251690Y289470D01*
X249150Y284390D01*
X251690Y279310D01*
X246610Y281850D01*
X241530Y279310D01*
X192420Y257920D02*
X194960Y263000D01*
X192420Y268080D01*
X197500Y265540D01*
X202580Y268080D01*
X200040Y263000D01*
X202580Y257920D01*
X197500Y260460D01*
X192420Y257920D01*
X114920Y279920D02*
X117460Y285000D01*
X114920Y290080D01*
X120000Y287540D01*
X125080Y290080D01*
X122540Y285000D01*
X125080Y279920D01*
X120000Y282460D01*
X114920Y279920D01*
X100920D02*
X103460Y285000D01*
X100920Y290080D01*
X106000Y287540D01*
X111080Y290080D01*
X108540Y285000D01*
X111080Y279920D01*
X106000Y282460D01*
X100920Y279920D01*
X319420Y320920D02*
X321960Y326000D01*
X319420Y331080D01*
X324500Y328540D01*
X329580Y331080D01*
X327040Y326000D01*
X329580Y320920D01*
X324500Y323460D01*
X319420Y320920D01*
X562920Y143920D02*
X565460Y149000D01*
X562920Y154080D01*
X568000Y151540D01*
X573080Y154080D01*
X570540Y149000D01*
X573080Y143920D01*
X568000Y146460D01*
X562920Y143920D01*
X549920Y86920D02*
X552460Y92000D01*
X549920Y97080D01*
X555000Y94540D01*
X560080Y97080D01*
X557540Y92000D01*
X560080Y86920D01*
X555000Y89460D01*
X549920Y86920D01*
X309920Y181920D02*
X312460Y187000D01*
X309920Y192080D01*
X315000Y189540D01*
X320080Y192080D01*
X317540Y187000D01*
X320080Y181920D01*
X315000Y184460D01*
X309920Y181920D01*
X311920Y267920D02*
X314460Y273000D01*
X311920Y278080D01*
X317000Y275540D01*
X322080Y278080D01*
X319540Y273000D01*
X322080Y267920D01*
X317000Y270460D01*
X311920Y267920D01*
X358920Y330920D02*
X361460Y336000D01*
X358920Y341080D01*
X364000Y338540D01*
X369080Y341080D01*
X366540Y336000D01*
X369080Y330920D01*
X364000Y333460D01*
X358920Y330920D01*
X430920Y227920D02*
X433460Y233000D01*
X430920Y238080D01*
X436000Y235540D01*
X441080Y238080D01*
X438540Y233000D01*
X441080Y227920D01*
X436000Y230460D01*
X430920Y227920D01*
X3920Y93920D02*
X6460Y99000D01*
X3920Y104080D01*
X9000Y101540D01*
X14080Y104080D01*
X11540Y99000D01*
X14080Y93920D01*
X9000Y96460D01*
X3920Y93920D01*
X1190Y198190D02*
X3730Y203270D01*
X1190Y208350D01*
X6270Y205810D01*
X11350Y208350D01*
X8810Y203270D01*
X11350Y198190D01*
X6270Y200730D01*
X1190Y198190D01*
Y272190D02*
X3730Y277270D01*
X1190Y282350D01*
X6270Y279810D01*
X11350Y282350D01*
X8810Y277270D01*
X11350Y272190D01*
X6270Y274730D01*
X1190Y272190D01*
X2920Y351920D02*
X5460Y357000D01*
X2920Y362080D01*
X8000Y359540D01*
X13080Y362080D01*
X10540Y357000D01*
X13080Y351920D01*
X8000Y354460D01*
X2920Y351920D01*
X102650Y352650D02*
X105190Y357730D01*
X102650Y362810D01*
X107730Y360270D01*
X112810Y362810D01*
X110270Y357730D01*
X112810Y352650D01*
X107730Y355190D01*
X102650Y352650D01*
X176650D02*
X179190Y357730D01*
X176650Y362810D01*
X181730Y360270D01*
X186810Y362810D01*
X184270Y357730D01*
X186810Y352650D01*
X181730Y355190D01*
X176650Y352650D01*
X260190Y353650D02*
X262730Y358730D01*
X260190Y363810D01*
X265270Y361270D01*
X270350Y363810D01*
X267810Y358730D01*
X270350Y353650D01*
X265270Y356190D01*
X260190Y353650D01*
X508920Y352920D02*
X511460Y358000D01*
X508920Y363080D01*
X514000Y360540D01*
X519080Y363080D01*
X516540Y358000D01*
X519080Y352920D01*
X514000Y355460D01*
X508920Y352920D01*
X594920Y191920D02*
X597460Y197000D01*
X594920Y202080D01*
X600000Y199540D01*
X605080Y202080D01*
X602540Y197000D01*
X605080Y191920D01*
X600000Y194460D01*
X594920Y191920D01*
Y143920D02*
X597460Y149000D01*
X594920Y154080D01*
X600000Y151540D01*
X605080Y154080D01*
X602540Y149000D01*
X605080Y143920D01*
X600000Y146460D01*
X594920Y143920D01*
X595920Y85920D02*
X598460Y91000D01*
X595920Y96080D01*
X601000Y93540D01*
X606080Y96080D01*
X603540Y91000D01*
X606080Y85920D01*
X601000Y88460D01*
X595920Y85920D01*
X527920Y920D02*
X530460Y6000D01*
X527920Y11080D01*
X533000Y8540D01*
X538080Y11080D01*
X535540Y6000D01*
X538080Y920D01*
X533000Y3460D01*
X527920Y920D01*
X453920Y-1080D02*
X456460Y4000D01*
X453920Y9080D01*
X459000Y6540D01*
X464080Y9080D01*
X461540Y4000D01*
X464080Y-1080D01*
X459000Y1460D01*
X453920Y-1080D01*
X360920Y920D02*
X363460Y6000D01*
X360920Y11080D01*
X366000Y8540D01*
X371080Y11080D01*
X368540Y6000D01*
X371080Y920D01*
X366000Y3460D01*
X360920Y920D01*
X252920D02*
X255460Y6000D01*
X252920Y11080D01*
X258000Y8540D01*
X263080Y11080D01*
X260540Y6000D01*
X263080Y920D01*
X258000Y3460D01*
X252920Y920D01*
X156920D02*
X159460Y6000D01*
X156920Y11080D01*
X162000Y8540D01*
X167080Y11080D01*
X164540Y6000D01*
X167080Y920D01*
X162000Y3460D01*
X156920Y920D01*
X81920D02*
X84460Y6000D01*
X81920Y11080D01*
X87000Y8540D01*
X92080Y11080D01*
X89540Y6000D01*
X92080Y920D01*
X87000Y3460D01*
X81920Y920D01*
X1920D02*
X4460Y6000D01*
X1920Y11080D01*
X7000Y8540D01*
X12080Y11080D01*
X9540Y6000D01*
X12080Y920D01*
X7000Y3460D01*
X1920Y920D01*
X595920Y225920D02*
X598460Y231000D01*
X595920Y236080D01*
X601000Y233540D01*
X606080Y236080D01*
X603540Y231000D01*
X606080Y225920D01*
X601000Y228460D01*
X595920Y225920D01*
Y294920D02*
X598460Y300000D01*
X595920Y305080D01*
X601000Y302540D01*
X606080Y305080D01*
X603540Y300000D01*
X606080Y294920D01*
X601000Y297460D01*
X595920Y294920D01*
X593176Y350758D02*
X595717Y355838D01*
X593176Y360918D01*
X598256Y358378D01*
X603336Y360918D01*
X600797Y355838D01*
X603336Y350758D01*
X598256Y353298D01*
X593176Y350758D01*
X260920Y200920D02*
X263460Y206000D01*
X260920Y211080D01*
X266000Y208540D01*
X271080Y211080D01*
X268540Y206000D01*
X271080Y200920D01*
X266000Y203460D01*
X260920Y200920D01*
X261920Y158920D02*
X264460Y164000D01*
X261920Y169080D01*
X267000Y166540D01*
X272080Y169080D01*
X269540Y164000D01*
X272080Y158920D01*
X267000Y161460D01*
X261920Y158920D01*
X139920Y55920D02*
X142460Y61000D01*
X139920Y66080D01*
X145000Y63540D01*
X150080Y66080D01*
X147540Y61000D01*
X150080Y55920D01*
X145000Y58460D01*
X139920Y55920D01*
X405920Y65920D02*
X408460Y71000D01*
X405920Y76080D01*
X411000Y73540D01*
X416080Y76080D01*
X413540Y71000D01*
X416080Y65920D01*
X411000Y68460D01*
X405920Y65920D01*
X406920Y12920D02*
X409460Y18000D01*
X406920Y23080D01*
X412000Y20540D01*
X417080Y23080D01*
X414540Y18000D01*
X417080Y12920D01*
X412000Y15460D01*
X406920Y12920D01*
X309920Y13920D02*
X312460Y19000D01*
X309920Y24080D01*
X315000Y21540D01*
X320080Y24080D01*
X317540Y19000D01*
X320080Y13920D01*
X315000Y16460D01*
X309920Y13920D01*
X310920Y66920D02*
X313460Y72000D01*
X310920Y77080D01*
X316000Y74540D01*
X321080Y77080D01*
X318540Y72000D01*
X321080Y66920D01*
X316000Y69460D01*
X310920Y66920D01*
X378920Y88920D02*
X381460Y94000D01*
X378920Y99080D01*
X384000Y96540D01*
X389080Y99080D01*
X386540Y94000D01*
X389080Y88920D01*
X384000Y91460D01*
X378920Y88920D01*
Y108920D02*
X381460Y114000D01*
X378920Y119080D01*
X384000Y116540D01*
X389080Y119080D01*
X386540Y114000D01*
X389080Y108920D01*
X384000Y111460D01*
X378920Y108920D01*
Y124920D02*
X381460Y130000D01*
X378920Y135080D01*
X384000Y132540D01*
X389080Y135080D01*
X386540Y130000D01*
X389080Y124920D01*
X384000Y127460D01*
X378920Y124920D01*
X340920Y88920D02*
X343460Y94000D01*
X340920Y99080D01*
X346000Y96540D01*
X351080Y99080D01*
X348540Y94000D01*
X351080Y88920D01*
X346000Y91460D01*
X340920Y88920D01*
Y107920D02*
X343460Y113000D01*
X340920Y118080D01*
X346000Y115540D01*
X351080Y118080D01*
X348540Y113000D01*
X351080Y107920D01*
X346000Y110460D01*
X340920Y107920D01*
Y124920D02*
X343460Y130000D01*
X340920Y135080D01*
X346000Y132540D01*
X351080Y135080D01*
X348540Y130000D01*
X351080Y124920D01*
X346000Y127460D01*
X340920Y124920D01*
X455920Y248920D02*
X458460Y254000D01*
X455920Y259080D01*
X461000Y256540D01*
X466080Y259080D01*
X463540Y254000D01*
X466080Y248920D01*
X461000Y251460D01*
X455920Y248920D01*
X458920Y284920D02*
X461460Y290000D01*
X458920Y295080D01*
X464000Y292540D01*
X469080Y295080D01*
X466540Y290000D01*
X469080Y284920D01*
X464000Y287460D01*
X458920Y284920D01*
X439920Y253920D02*
X442460Y259000D01*
X439920Y264080D01*
X445000Y261540D01*
X450080Y264080D01*
X447540Y259000D01*
X450080Y253920D01*
X445000Y256460D01*
X439920Y253920D01*
X420920D02*
X423460Y259000D01*
X420920Y264080D01*
X426000Y261540D01*
X431080Y264080D01*
X428540Y259000D01*
X431080Y253920D01*
X426000Y256460D01*
X420920Y253920D01*
X398920Y285920D02*
X401460Y291000D01*
X398920Y296080D01*
X404000Y293540D01*
X409080Y296080D01*
X406540Y291000D01*
X409080Y285920D01*
X404000Y288460D01*
X398920Y285920D01*
X379920Y283920D02*
X382460Y289000D01*
X379920Y294080D01*
X385000Y291540D01*
X390080Y294080D01*
X387540Y289000D01*
X390080Y283920D01*
X385000Y286460D01*
X379920Y283920D01*
X584920Y69920D02*
X587460Y75000D01*
X584920Y80080D01*
X590000Y77540D01*
X595080Y80080D01*
X592540Y75000D01*
X595080Y69920D01*
X590000Y72460D01*
X584920Y69920D01*
X364920Y257920D02*
X367460Y263000D01*
X364920Y268080D01*
X370000Y265540D01*
X375080Y268080D01*
X372540Y263000D01*
X375080Y257920D01*
X370000Y260460D01*
X364920Y257920D01*
X355920Y263920D02*
X358460Y269000D01*
X355920Y274080D01*
X361000Y271540D01*
X366080Y274080D01*
X363540Y269000D01*
X366080Y263920D01*
X361000Y266460D01*
X355920Y263920D01*
X374920Y221920D02*
X377460Y227000D01*
X374920Y232080D01*
X380000Y229540D01*
X385080Y232080D01*
X382540Y227000D01*
X385080Y221920D01*
X380000Y224460D01*
X374920Y221920D01*
X418920Y112920D02*
X421460Y118000D01*
X418920Y123080D01*
X424000Y120540D01*
X429080Y123080D01*
X426540Y118000D01*
X429080Y112920D01*
X424000Y115460D01*
X418920Y112920D01*
X391920Y177920D02*
X394460Y183000D01*
X391920Y188080D01*
X397000Y185540D01*
X402080Y188080D01*
X399540Y183000D01*
X402080Y177920D01*
X397000Y180460D01*
X391920Y177920D01*
X514920Y80920D02*
X517460Y86000D01*
X514920Y91080D01*
X520000Y88540D01*
X525080Y91080D01*
X522540Y86000D01*
X525080Y80920D01*
X520000Y83460D01*
X514920Y80920D01*
X496920Y231920D02*
X499460Y237000D01*
X496920Y242080D01*
X502000Y239540D01*
X507080Y242080D01*
X504540Y237000D01*
X507080Y231920D01*
X502000Y234460D01*
X496920Y231920D01*
X524920Y254920D02*
X527460Y260000D01*
X524920Y265080D01*
X530000Y262540D01*
X535080Y265080D01*
X532540Y260000D01*
X535080Y254920D01*
X530000Y257460D01*
X524920Y254920D01*
X328920Y350920D02*
X331460Y356000D01*
X328920Y361080D01*
X334000Y358540D01*
X339080Y361080D01*
X336540Y356000D01*
X339080Y350920D01*
X334000Y353460D01*
X328920Y350920D01*
X211920Y99920D02*
X214460Y105000D01*
X211920Y110080D01*
X217000Y107540D01*
X222080Y110080D01*
X219540Y105000D01*
X222080Y99920D01*
X217000Y102460D01*
X211920Y99920D01*
X112920Y95920D02*
X115460Y101000D01*
X112920Y106080D01*
X118000Y103540D01*
X123080Y106080D01*
X120540Y101000D01*
X123080Y95920D01*
X118000Y98460D01*
X112920Y95920D01*
X99920Y73920D02*
X102460Y79000D01*
X99920Y84080D01*
X105000Y81540D01*
X110080Y84080D01*
X107540Y79000D01*
X110080Y73920D01*
X105000Y76460D01*
X99920Y73920D01*
X112920Y76920D02*
X115460Y82000D01*
X112920Y87080D01*
X118000Y84540D01*
X123080Y87080D01*
X120540Y82000D01*
X123080Y76920D01*
X118000Y79460D01*
X112920Y76920D01*
X125920D02*
X128460Y82000D01*
X125920Y87080D01*
X131000Y84540D01*
X136080Y87080D01*
X133540Y82000D01*
X136080Y76920D01*
X131000Y79460D01*
X125920Y76920D01*
X202890Y153920D02*
X205430Y159000D01*
X202890Y164080D01*
X207970Y161540D01*
X213050Y164080D01*
X210510Y159000D01*
X213050Y153920D01*
X207970Y156460D01*
X202890Y153920D01*
X214920Y75920D02*
X217460Y81000D01*
X214920Y86080D01*
X220000Y83540D01*
X225080Y86080D01*
X222540Y81000D01*
X225080Y75920D01*
X220000Y78460D01*
X214920Y75920D01*
X266920Y39920D02*
X269460Y45000D01*
X266920Y50080D01*
X272000Y47540D01*
X277080Y50080D01*
X274540Y45000D01*
X277080Y39920D01*
X272000Y42460D01*
X266920Y39920D01*
X222920Y47920D02*
X225460Y53000D01*
X222920Y58080D01*
X228000Y55540D01*
X233080Y58080D01*
X230540Y53000D01*
X233080Y47920D01*
X228000Y50460D01*
X222920Y47920D01*
X184920Y12920D02*
X187460Y18000D01*
X184920Y23080D01*
X190000Y20540D01*
X195080Y23080D01*
X192540Y18000D01*
X195080Y12920D01*
X190000Y15460D01*
X184920Y12920D01*
X253690Y126690D02*
X256230Y131770D01*
X253690Y136850D01*
X258770Y134310D01*
X263850Y136850D01*
X261310Y131770D01*
X263850Y126690D01*
X258770Y129230D01*
X253690Y126690D01*
X266650Y93190D02*
X269190Y98270D01*
X266650Y103350D01*
X271730Y100810D01*
X276810Y103350D01*
X274270Y98270D01*
X276810Y93190D01*
X271730Y95730D01*
X266650Y93190D01*
X61920Y132920D02*
X64460Y138000D01*
X61920Y143080D01*
X67000Y140540D01*
X72080Y143080D01*
X69540Y138000D01*
X72080Y132920D01*
X67000Y135460D01*
X61920Y132920D01*
X62870Y306870D02*
X65410Y311950D01*
X62870Y317030D01*
X67950Y314490D01*
X73030Y317030D01*
X70490Y311950D01*
X73030Y306870D01*
X67950Y309410D01*
X62870Y306870D01*
X230920Y325920D02*
X233460Y331000D01*
X230920Y336080D01*
X236000Y333540D01*
X241080Y336080D01*
X238540Y331000D01*
X241080Y325920D01*
X236000Y328460D01*
X230920Y325920D01*
X253920Y309920D02*
X256460Y315000D01*
X253920Y320080D01*
X259000Y317540D01*
X264080Y320080D01*
X261540Y315000D01*
X264080Y309920D01*
X259000Y312460D01*
X253920Y309920D01*
X100920Y258920D02*
X103460Y264000D01*
X100920Y269080D01*
X106000Y266540D01*
X111080Y269080D01*
X108540Y264000D01*
X111080Y258920D01*
X106000Y261460D01*
X100920Y258920D01*
X113920Y257920D02*
X116460Y263000D01*
X113920Y268080D01*
X119000Y265540D01*
X124080Y268080D01*
X121540Y263000D01*
X124080Y257920D01*
X119000Y260460D01*
X113920Y257920D01*
X125920Y258920D02*
X128460Y264000D01*
X125920Y269080D01*
X131000Y266540D01*
X136080Y269080D01*
X133540Y264000D01*
X136080Y258920D01*
X131000Y261460D01*
X125920Y258920D01*
X179920Y198920D02*
X182460Y204000D01*
X179920Y209080D01*
X185000Y206540D01*
X190080Y209080D01*
X187540Y204000D01*
X190080Y198920D01*
X185000Y201460D01*
X179920Y198920D01*
X228920Y223920D02*
X231460Y229000D01*
X228920Y234080D01*
X234000Y231540D01*
X239080Y234080D01*
X236540Y229000D01*
X239080Y223920D01*
X234000Y226460D01*
X228920Y223920D01*
X153920Y288920D02*
X156460Y294000D01*
X153920Y299080D01*
X159000Y296540D01*
X164080Y299080D01*
X161540Y294000D01*
X164080Y288920D01*
X159000Y291460D01*
X153920Y288920D01*
X215920Y258920D02*
X218460Y264000D01*
X215920Y269080D01*
X221000Y266540D01*
X226080Y269080D01*
X223540Y264000D01*
X226080Y258920D01*
X221000Y261460D01*
X215920Y258920D01*
X266920Y259920D02*
X269460Y265000D01*
X266920Y270080D01*
X272000Y267540D01*
X277080Y270080D01*
X274540Y265000D01*
X277080Y259920D01*
X272000Y262460D01*
X266920Y259920D01*
X310920Y329920D02*
X313460Y335000D01*
X310920Y340080D01*
X316000Y337540D01*
X321080Y340080D01*
X318540Y335000D01*
X321080Y329920D01*
X316000Y332460D01*
X310920Y329920D01*
D61*
X225250Y142120D02*
G03*
X225250Y142120I-5080J0D01*
G01*
X199850D02*
G03*
X199850Y142120I-5080J0D01*
G01*
X174450D02*
G03*
X174450Y142120I-5080J0D01*
G01*
X149050D02*
G03*
X149050Y142120I-5080J0D01*
G01*
X123650D02*
G03*
X123650Y142120I-5080J0D01*
G01*
X98250D02*
G03*
X98250Y142120I-5080J0D01*
G01*
X225250Y40620D02*
G03*
X225250Y40620I-5080J0D01*
G01*
X199850D02*
G03*
X199850Y40620I-5080J0D01*
G01*
X174450D02*
G03*
X174450Y40620I-5080J0D01*
G01*
X149050D02*
G03*
X149050Y40620I-5080J0D01*
G01*
X123650D02*
G03*
X123650Y40620I-5080J0D01*
G01*
X98250D02*
G03*
X98250Y40620I-5080J0D01*
G01*
X223980Y321190D02*
G03*
X223980Y321190I-5080J0D01*
G01*
X198580D02*
G03*
X198580Y321190I-5080J0D01*
G01*
X173180D02*
G03*
X173180Y321190I-5080J0D01*
G01*
X147780D02*
G03*
X147780Y321190I-5080J0D01*
G01*
X122380D02*
G03*
X122380Y321190I-5080J0D01*
G01*
X96980D02*
G03*
X96980Y321190I-5080J0D01*
G01*
X223980Y219690D02*
G03*
X223980Y219690I-5080J0D01*
G01*
X198580D02*
G03*
X198580Y219690I-5080J0D01*
G01*
X173180D02*
G03*
X173180Y219690I-5080J0D01*
G01*
X147780D02*
G03*
X147780Y219690I-5080J0D01*
G01*
X122380D02*
G03*
X122380Y219690I-5080J0D01*
G01*
X96980D02*
G03*
X96980Y219690I-5080J0D01*
G01*
M02*
